<mxfile host="app.diagrams.net" modified="2023-08-03T09:29:12.080Z" agent="Mozilla/5.0 (Windows NT 10.0; Win64; x64) AppleWebKit/537.36 (KHTML, like Gecko) Chrome/112.0.0.0 Safari/537.36" etag="6cNmIMTEOlL4nK9IIWtp" version="21.6.6" type="github">
  <diagram id="qk6RZyA9M4YNjLuwDCmm" name="第 1 页">
    <mxGraphModel dx="1834" dy="1164" grid="0" gridSize="10" guides="1" tooltips="1" connect="1" arrows="1" fold="1" page="0" pageScale="1" pageWidth="827" pageHeight="1169" math="0" shadow="0">
      <root>
        <mxCell id="0" />
        <mxCell id="1" parent="0" />
        <mxCell id="3UUtxU2mLUPDlU9XYx67-2" value="部门选择" style="text;html=1;align=center;verticalAlign=middle;resizable=0;points=[];autosize=1;strokeColor=none;fillColor=none;" parent="1" vertex="1">
          <mxGeometry x="-161" y="-270" width="66" height="26" as="geometry" />
        </mxCell>
        <mxCell id="3UUtxU2mLUPDlU9XYx67-3" value="" style="shape=image;verticalLabelPosition=bottom;labelBackgroundColor=default;verticalAlign=top;aspect=fixed;imageAspect=0;image=data:image/png,iVBORw0KGgoAAAANSUhEUgAAAowAAADSCAYAAADAKJF4AAAgAElEQVR4nOy9e3wUVZr//+kA2qxiaAGzxMAsLa4TGHWxzTpfxDhofIFEJ0YHdo2MICvIXBps4ih+yQbMhB/eYpu0jhr2hwwTwyxRkxYyE76gzAbNjl/SomICOkk7GzIZM1yKi5DiktT3j86pVFWfqq7u9CWX5/16NaHreurU6ac+9TzPOcciSZIEQo0kARZL8DIgeHmodQRBELGE7BVBEHEgKdEFGHDo6WdmXEOtJwiCiBdkrwiCiBMjY3XgQ3/tworKP6Ms7x/w3YmjAQCFNYex9Y9H5W3+/d40PHzrBOz96hS2NBxFad4/4O19x/DL7e1Bx7NPsOKtx67F+MtjVuQAFou+kSUIghhIkL0iCCJOWKIdkt7y0RGu4PvBd5NxuXUE7r/Jhtv+8Qps+egIpky4FLf94xUAgL1fncKu5pMoum9S0L5Hv72Ip99uw4YfTY6eYNRetvKNmxfi0e6nfYOnN3aCIGIF2SuCIBJM1N11D986Ad+cuoAf/pMN3504WiX2ynb/FUDA+7j/8Fn8KGOcaj0TjzGFZzAlKdjoGhlhJewN3+z2BEEQZiF7RRDEACEmOYw/v/PvUfnxURw+fh7rd/wF+XMmqjyD730q4LHbr8LfXZKgFEqtoQz1PdQ6i4WML0EQsYHsFUEQA4CoexiXbvbjD4dOAoCcr7jj0+OwT7Bi8rhL8bdTF/F+80l8e66bG36OOeEYSnoLJwgikZC9IghigBB1wbhxsV13XWHNYVx1xUjszE/Hlo+OYMtHRzDvRlu0ixA+vDROvdANGWWCIBIJ2SuCIBKAoWD8ov0sXt3TiQ+/Og3xQjd3mz89O0P1/ei3F/HQG3+C/4goL7NdNgpbHr1Gtd28G20o2/1XdJ3vibTsuHb1/oj3ZWhNqcRdJwUt0W5LEAQRa8heEQQRC6yjRmDWP47Bz2an4Htpf8fdRlcwftF+Fg++0aIrFI2YPO5S1RA4z/++I2ibo6cv4LQYuViMBmoDa/QWToaXIIjEQvaKIIhYIV7oxu6mE/jwq9PY+thUrmjUFYyv7umEeKEbP7p5HH5xdyquvCw60etdzSexZFMrAGDTkmswuh8dX7TezYigYSYIghgskL0iCCIGHD9zES/8vgNvNx7Dq3s68dqPpwRto6sCP/zqNABEJBbbjp3D/yo+IH+3XTYKP/ynQK7iXdOSVZ1djn57MaxjxwQyvgRBDBbIXhEEEWWuvGwkfnF3Kt5uPCbrPy26SpCFoiPxLJoJSZtBOTPMg98fH/tZXgiCIAiCIIYhTO/ppSLqzvTCOpREJew7kKEQD0EQgwWyVwRBxBAj7ZegkbMJgiAIgiCIwQLFeOlNnSCIwQLZK4IgEgR5GAmCIAiCIAhDSDASBEEQBEEQhpBgJAiCIAiCIAwhwUgQBEEQBEEYQoKRIAiCIAiCMIQEI0EQBEEQBGEICUaCIAiCIAjCEBKMBEEQBEEQhCEkGAmCIAiCIAhDSDASBEEQBEEQhpBgJAiCIAiCIAwhwUgQBEEQBEEYQoKRIAiCIAiCMCQhgtHn82Hx4sUQBCHs/ex2O7xeb0Tn9Xg8Ee8LAH6/H9nZ2fB4PGGdU7l9f8sQbeJdJz6fD9nZ2fD7/arlXq8XBQUFEEXR9LkFQcDixYvh8/nCKrMSURRRUFAQcR34/X6sXLky7LZshNfrDauNaWHXZPY3ZtQGIr0+5TEjuR7t7yYcBEFAQUFBVO8JQRDEcCfqgpGJOr3Phx9+iF27dqGwsBA2m830cf1+PwoLC3HPPfegvLw8SHCEQhRFzJw5E+Xl5RGJA0EQUFRUhPHjx6Ours6USPH5fPD5fFi4cKG8LDs7G+Xl5Yb7MyFkVI+8T7gP2HjXiSAI8Hg8WLZsGex2e8iy9UfIxQu73Y6pU6eivr4+ase89tpr4fP5IhZMGzduxP79+yFJEioqKqJWrkhh1xPJS2K4iKKIkpISXH755TE9D0EQxHBjZLQP6HA4VGLO4/Fg8uTJyMnJARAQUeXl5SgvLw/aNzMzE263O0hI+v1+OJ1OLFu2DDk5OfB6vSgqKuJuy87pdrt1y+hyueByuYKWV1VVweFwBC0XBAEulwsOhwNOpxM+nw+FhYXweDy6wkcURVRXV6O+vp57zPnz53PL5XQ6AQDJycnYvXt3SGHF8Hq9aGtr010/EOqkoqICDocDOTk58Pv92LZtGx5//HFYrVZuWauqqpCamqpbZkEQcOTIEd318WLhwoVYt24drr/+etP3CwjcM16dM+rr67n3zO12y78nLR6PBz6fTxaKLpcLXq9Xd3st7Ld28OBB1fLt27ervuu1Cx7Tpk3D66+/juLiYvj9ftP7RcLGjRsBQNWuBEFASUkJ8vPzw3pJJQiCIBRIOkx96hNp6lOf6K02TVlZmVRTUyNJkiQdP35cWrRokfydt42W1tZWad68eUHra2pqpEWLFknHjx/nnrOsrMx0GVm5Ghsbdc+vPV5jY6M0b948qbW1lXvMsrIyacqUKUHHrKmpkdasWSN1dXUZlmfFihW6x25tbZVWrFihuvaamhrDa05knXR1dUlr1qzhbs+W1dTUSFOmTFHVmfI62TnZNmY/rN2wMkS6P68+levM3Fct4e7DroFXJrZO+5vQ+82xa1BeK+/e8dqaGYx+00ZlMPPRa8dlZWW69WlkLwiCIIgARtov6h5GoM/bxbxlQF+oSOtxE0URnZ2dmDlzJvc4LpeL683IyclBWloaFi5caOjVYpjxgPH2mT9/Ptej43A44PF4VJ5PZblbWlpw7733cj2JAFBZWan6ruddjSXxqpOuri60t7ejsrKS6zGbPHkyACAvLw8FBQVBHkcgEPqtra1VLfP7/XjmmWewdu3aoPIzD2haWppqubYtiaKI4uJiZGRkBF1POCHhzMxMfPDBB+jo6EBqaqruMUPBPHxFRUWmPXHKa3399ddV9Wez2WTv3r59+1T163Q64XQ6g6IAZgnlIQWgu155H3htidW90oawc2o96eweAtBtP+z4Lpcr7r8zgiCIWLNr1y4AwF133RWzc8REMPKwWq3Iz8/H3LlzUVdXB1EUYbVa0dHRgcOHD6sMOHtozpgxA83NzfIDQCsQHA4HKioq5Icle1hoHzIsPKyXO2ez2bB582b5O3sAAwGBpPdwsdvteOedd1BcXIzq6mq43W4IgoAPPvgATz/9NF555ZUggeL1eoMe3HqwXEa9/DgWJszMzERmZqbhsRJZJ9pjaa+xpKQEt99+e9C6AwcOYMyYMRg9erTuvkePHuVfcAxQtj8tNpsNpaWl8veMjAxUV1cjMzNTt65ycnKChFJtbS3mzp3LFYtWq1UWRgxl+F5PYLL9vF4vpk2bFlY42Qhe+YG+l4r09PSwXkYiQSmWtb8pPUFbUlJi6vdHEAQxGNi1a5csGIHYica4CEaWH5eZmQmn04nDhw+jo6MDdrsdgiBg0qRJcq4ae9iYfagxMeL1evHAAw9wH1BNTU1ob29Hfn5+yOMpPTwNDQ2mypCXl4dHH30UDocDVVVVKC0tlXv79sfDyBNarHwTJkxQbe/1enHmzJmQZWXEu04Afl2w6waAt956C9OmTVOtr6qqMnywT5gwIW7eIm1bNSIzM1POYQ0nf7CxsZErSLUwr1pKSgqqqqp025mS9PR0VFVVwePxyLmnjIMHD+Ldd9/F3LlzsWbNmqB9lTmMRr9NQRDQ0NCAZcuW4aqrrkJtbS2WLl0aE3GmjFoAwb8pt9vN7Rzn8XhQXFxMopEgiEGPVizG0tMYF8GoDDmJoohJkybhwIEDsNvtaGhoQEpKimy4lZ1m9MJSPJi3g/XS5hFK6DDxwkKf2oeq3+9HaWkp1q1bxxUpvIdTfzyMvOOXlpaiqKgIW7ZsMb0fE+E84lUnPp8vKOTM9gX44jgUDQ0NSEtL43ogBUGAJElRFZPatmqEzWZDbm6urpdRr3MJAGRlZRkem3nulN5GZdtjYjI3N5d7f5X1zDyUeXl5eOONN2C1WnHLLbdw7ynzsBrVaXV1NbKzs1FbW4tx48bhxhtvxM6dO8MOd5uBeU61XtdQsE5K7KWVIAhiMKIVi8rlQPRFY9xC0gyr1SqH69LS0kx7VMzC66UN8EVnOII0Usx6GIG+HD4eXq9XFfYOh4FWJzx4QtpIXAuCAJ/Ph9zc3LCEt9H94IUvmfeTnS+cejHyMmpzMo2utT8vGXooRSUQyCNlx05NTcWYMWOCejTX1tbi5ptv1hVZXq8X48aNU613OBz47LPP4Pf7dffT66EPgJvzGipvMhTa9AGCIIjBhp5YVK4Hoisa4y4YAWDOnDnYt28f5s+fD5fLFdZb/tGjR4M8MHq5Ul6vFz6fj/vQCRX+M/IAaYcYAYI9iTzvhyAIWLduHVauXGl4zV1dXUHlmDt3ruwZ6s9Ydomsk8rKSm4onldGJiL0vEf19fU4cuQIrr/+eu56PSLt9MIEdzhtlXkZjYY7AvqGmvJ4PFxhXF1dDafTyRWLrPy8FxDeMjZ0kzIfsqGhQbWN1WpFbm6u7H202WzymKJ6QzMpRa2W3Nxcw3bf304vRu1SSyI6lxEEQUSbu+66K6YdXHgkRDBarVakpKQAALd3tBHjx483NT6hKIoYN24cgICXQ/lQYgNO33///brH0euVaxR+ZefVe4AzeOIKUOfzAcC2bduwd+/eIDEsCAJOnjype3w9ElUnDKOQNNAnKPVyz5TnLC8vNxwAXBAEWCwWuUy8DiOhUIoVlrtpRmiwjhhOp9NUKLarqwszZsxAVlaWaixOlqPncDhCdmhRXluokLQZpk+fjrS0NFRUVCA7OxuFhYUoKirSHfe0s7NT1wNqs9mwcuVKbo/2cD3ZevU5depUVFRUGN4fbXsjCIIgzBPTqQG9Xi/cbrfsRWRTwnk8HtTV1WH9+vWYP39+TGbzsFqtmDVrFjZv3qzyDrHe1WwA6Viclw1QzD4+nw+ZmZnIy8vDvffei2XLliEzMxM+n0+13ebNm1UPvAULFqC2thZ2u12egs9ut2P+/PnIzc3VfTh2d3fjnXfewdtvv43u7u6E1wmjsrIS06ZNk8+ZlZWlEr55eXlobm6Wy+D3+7Fo0SKVeFR6XGNZVi1sCBoz6OVPfvHFF3jxxReDPMSzZs2S28zMmTPl+mEdgJYuXRqdiwgDNqqBz+dDVlYWd5gfNhuPkVhk2O12rF27Fk6nc8DP3kMQBEEEE3XB6PF45LHOAKgEERujr7OzE++88w4efPBB7N69G+Xl5WHPIxwu2vH46urqwp5eMFxYBxxWH6xH8oIFC1RC2swDlHn3WF0aiaWenh60tLTgq6++UglGLfGuEyYI2TXs3r0bycnJhvuMHTtWFl4ejwdZWVlYtmyZoXhjQwaZ9QhGil6o+cCBAyrvJuPIkSPw+XyGvdltNhvS09Pl75WVlWhqaopOgcOkvr5e7oFcWFjI7ViTkpKC4uJiU7mVbMilffv29WuubIIgCCL+RD0kreeJ0Rsuhwkhj8eD5cuXw+12o6KiQhWa1eZN6fUi5Q33wfKw0tPTVaFsFjasr6/n9mQ2SqzXCynn5eXhoYcewhNPPIGDBw/C5XKpHrJKz5KyV7DX65XLVVVVBbvdjpMnT4bsLauFlXnUqFF46qmndLeLd53odeQJhSAI8jiMbMo73hiQynIzMjMzTQ0ZFCkLFy40zL+tqqoKKufs2bMxe/Zs7vbK+lXWPRNmvMHSQ+Xu6aVFhBofkf1Wle2XeRqVOYDhhviByFIDzNDS0mIq/B5qvFKCIAhCh0imhxnoKKcb401tp0Rv2rpEEmpqQB5mpgZMZJ00NjbK07YppwFk52BT2Jmdmi9aGE23F2uU9WB2Gr1wpx80c342JSCbftHoHI2NjXG5L+FMZWl2+sJIpzkkCIIYLhhpP4skSRJPSF67ej8A4E/PzoirgCUIgiAIgiDij5H2i2mnF4IgCIIgCGLwQ4KRIAiCIAiCMIQEI0EQBEEQBGEICUaCIAiCIAjCEBKMBEEQBEEQhCEJmRqwv+h07CYIgiAIghgUWCyWRBchLAasYCRRSBAEQRDEUMVI5wxEMTmgBCOJRIIgCIIghjtKPTRQxGPCBSOJRIIgCIIgCD4DRTwmTDCaFYokKAmCIAiCGA6EEoRMEyVCOCZEMBqJwEgEIolKgiAIgiAGMmZEnlbP6O0jSVLcRWNcBaOesAt3OUEQBEEQxGDCrKZRCkGjcHS8vY1xE4xmRSFvOxKOBEEQBEEMZZjw0xOJel7FeHkb4yIYzYhA5XcSjQRBEARBDBcsFgs3HK31Iup5FeMhGmMuGEOJPzP/1zsOQRAEQRDEUEMrFnnCMd6iUVcwWkeNgHihG8fPXMSVl0VPV/JEoZllJCAJgiAIghgKaIWdxWLhij2ecDQSjf3h+JmLAAL6j4euEpz1j2Owu+kEXvh9B35xd2pEotFM2Fn7t6enh7ucdzyCIAiCIIjBhjZPUetBZH+TkpJU24QSjZGKyONnLuKF33cACOg/HhZJR4V90X4WD77RAvFCd9gnDqA5rFFoWurp217ejH3vFY7a4+kckyAIgiAIYsDC8yTCollnUf0BLIClTzyGPmZknkfrqBHY+thUfC/t74JPoScYgYBofHVPJz786nQEwtFYMEqS1CsUe7dVCkVJCghEeR/FvrqlJfFIEARBEMRAREfAWThfLJaAgLRYoBaO7P9JwaKxn4LROmoEZv3jGPxsdgpXLAIhBGOk6IWilX+1HxaKtlgsGDVqFEaOTPishQRBEARBEHHn4sWLuHDhgqybkpKS5DxH5QcIDmMzot0BJuaCkdd5hScWJUlCUlISRo8eHe3iEARBEARBDDq6urrQ09MDi8WiKxqVwlDv/9EgKapHM0DPu8jEYk9PD3kVCYIgCIIgehk5cqRKJ2k1FBC/DsFRF4xGBWdhZ7adUjSSYCQIgiAIguiDCUatWGQodZWWaAvJmHoYtV5F9n+eWmYuV4IgCIIgCCIQVtZqJeVfIFhjxYqEziWt9C4aqWSCIAiCIIjhiNKhxsZlVBKvuaSj6mHUU7ZG3kUSjMSAgsb2JAhisED2alig1ElGXkYe0fQ4xiwkHWraP+XFdnd3o7s70gHCCSJKSBJ3QFWCIIgBB9mrYQPTSNpUPiD01MrRJCG9THi9pLu7u3HgL2cTURyCIONLEMTggezVsOJKdCMpKUkOTWs7vsSLmA+rw+vRo+0W3t3dTSFpgiAIgiAIDT09PbKHkTfhCRCstWJB3MZhVMbald9ZJVBImog+ivnI2YcgCGJAQvaK4KPUSTyhGC+HW8JC0uyvNnGTIPqPhMA8mtrJ3NFnhCmcQxDEgIDsFWEM00lJSUlxH6xbSdw8jAB/akC2nELSRPQwMK5GhpdeWgiCiDtkrwhjeGMu8gbxjjVxFYxayLtIRB1eW9KGdyyW4O0sim1DHY8gCCIakL0iTDIQ9FLUBGN/LiLRlUAMEfR6Duq+pSvbnKVvO6XBplAQQRCxgOwVYZL+RmGjpa/iMjWgdlmosYQIot9w25P2rZ2zicXS9yEIgogHZK8IA/T6fehprFiR0JA0I1FjChHDCJ7BJRtLEMRAhOwVoWCgaKS4eBjjMWUNQZhC2eao+REEMZAhe0VoMDMFc6xIuIcx3qKx+fNPUOBahlMnT4S9390zp2PPzh0Rnbfyzdci3hcA2tu+xs8evh+Vb74W1jmV2/e3DNEm9nWiblvNB/bj54seQPv/+APresM4e3bugOf5Z3D+nGj63KdOnkCBaxmaP/8kwtID58+J8Dz/TMR10N72NZ4t/EXYbdmIPTt3hNXGtLBrMvsbM2oDkV6f8piRXI/2dxMOp06egOf5Z6J6T4jhgs6zUJKgtFfE8CXRTraEjMMYK5o//wT5y3+su/7/e3kjPtn331juehpXJI81fdz2tq/x6ovFyLzzbrz91iZcmz4daZOnmN7//DkR/+S4Ba++WAwAmD3nHtP7AoGH0OvuDRh75Xh8tGcX/slxC6bdcJPhPs2ff4Lmz/fjyXXPy8sy75yLDQX5SJmYqrv/qZMn8Py6J+H7+KOwyvjjpT9H3iM/Mb19v+vkhIA3tHVy/QzIY5qxnoW9NvbUyRPY+ubreOChJUj7jj1k2d4ofQ7fu9ERdrniSdrkKZg8xQ7fHz+MWjm/Y5+K9+veQ+Wbr4V1PxlvV76JQ198hrFXjseOd7dGdIxowq6nwLUMT657PqzffbicPyfi12+U4u8uuzxm5yAGKbIt0oo+vr2CvCmJRGLgEHfBGMvw9LQbbsLvG5rk75VvvoaJqZPkh2nz55/g7bc24e23NgXt67jlVu4Dpb3ta2woyMePHlqC2XPuwZ6dO/C6e4Puw6fyzdfwm42v6Jbx+WeewvPPPBW0vOT133BFHBNw026YgbxHfoLmzz/Bqy8W4+niEl3Rev6ciPfrtsP38Uf4l7tvDVrPE9VKwXf5mGRs/O0O06J4z84d+GvHYd31Ua+TEwJeeOYpTLthBh7srZNflazH6l++iLRJ/9BnYxXDUdS+uxXpN8zA7Dn3oL3ta/yf7e9i4aM/wyWXWrllLXn9N5iQkqpb5lMnBQjHjuqujxf33P8gflWyPuyXmD07d3DrnOH7+CPuPXty7XO64rTyzdfQ/Pl+bPAEfl/Pr3sSe3buMC1m2W/N3/Klavl/7f6d6rteu+Bhv/a7KHy2DG+UPof2//Gb3i8S3q58EwDwY0W7OnXyBH79RikWPbYypmKVGMCwZxsbn5uhFYna4XPIo0j0MlDS+oaUh9GIUydPoPLN14MeeFpRqUQrFoE+T9jz657UFY3heNuYIOTBzn/r7Lvk40274Sb87IkCbCjI1xWNb1e+id/VbAt6sO7ZuQNffObDYyufChJKZmlv+xoV//Er/DR/TVgPwGjWybMF+Zg5+y48uHg5IEmYdsNN+Gn+Gjz7708oRGPA2J4/fw7lpc/hyglXyedPmzwF35/1A7xd+aa87Hc12+Q6y3vkJ2hv+xr//6sl+Gn+Gpw6KXCFDMAX3wzW1pjH8nc127jb/a5mG1e86YkzZZu9Inksbrn1dlT/dkvY93XefQtM78OuwWhd51//ovpNPLnuefk+aq9D+xLx9lub8HRxCV7d8q68LNK2puWSS61wPrk2aHmoFxneOr12XPnmazh25G9B9XlF8lh870aHob0ghjja4W+UQtAC9TI9kag3BA9BxJEhJxiZt0tp1FmoyPfxR5h2wwzV8mNH/oZ/ctzCPc7zzzzF9WbMnnMPUiam4mnnEkNPH8OMV5C3T/7yH3NFw7QbbsLTxSVBYpaVu+1rP27PmqcrZrTCRc+7GkvCrhNJQvOB/XjiJw/jF4XPBq5Z8XY17YabsPqXL+LZf38CD+Q9gtlzsgFYIIoiOv/6F/zOW4WK/3hVNV6ZJEmYmDoJgLF4Sps8RSVkgICYee2lDfjJqqeDys8Eb8pEtYdS25aMQt/h5NA5vj8LH3/0X/hb519xVcrEiMPp7AXlZ08UmPbE9V3r1Sh8tixILDHvnvZFJe+RnyDvkZ8YvrAZEcpDCkB3vfI+8H5frO61wpDnSVcKab32Y+YlkxhimBZ4FgRcj1r3o+Y4JBaJAcCQE4w8LrnUikWPrcSsH9yFD/+wC+fPibjkUiv+1vlXfNPxF1wx1iZvyx6a3/3ejfDu8ckPAK1AmHbDTdjg2SQ/LNnDQvuQYeHhHz20hCuMrkgei2J3ufxd6V37z99/pPtwSZs8Be6NlXij9Dm8X/cenlz3PE6dFPDxR/+FR3+ej62b3+iXh/HUCQEF7g26uYwsTOi45VY4bgkOeyuJRp280Fsnv/3dh311wkI4vUY1bfIUvFT+FspLn8MHde/hF2ufwxXJY/FLdzl3YFsWLsz4X7cFleFPB5tw2eWXw2rl19OpEwJOHI9fSFrZ/rRckTwWq4tekL9/70YH3q97D47vz9JtP7Pn3BMklOrfr8Ots+/iikWel04ZvtcTmGy/PTt3IGe2I6xwshG88gN9L1r2qdeF9YIWCUqxrP1N6QnaX79R2i8PPzGI0dgr1XJAbaNoIG5iADLkBSPLj3PccivyHlmObzr+gr91/hVpk6fg1AkBf596Na5KmQig72Fj9qHGhM2enTvgWprHfUC1fNmMzr/+BYseWxnyeEoPz6e+j7n5h1rm3bcADzy4GP9y960oef03WF30gtzbtz8exivG2lSiTVk+27jxqu337NyBrq6zIcvKCLdOni3Ix0/z1+DTT/6vqk4smpwf9r959y3A/Q8uxr9m34YXX9sCAHjiJw/3bde7D7tuANjx7m+RM9uhOnfJ678xfLDbxo3HFck23fXRRNtWjXB8fxber3svrM4w7W1fo+mz/VxBqoV51cZNuAolr//GMCzPsE+9DiWv/waVb74u5+My/C1fYvfv38Os2Vkoe+6ZoH2VOYxGv81TJ0/gU9/H+NFDS3DluPGof78OP8p7JCbiTBm1AIJ/U0+ufU6VT82ofPM1vFH6HInG4QpzKPI8ijwRSRADiCEvGJUhp/PnRPx96tX408EmpE2egk99H2PchKtkw63sNKMXluLBvB3Nn3+Cu/+V/4AOJf6YeGGhz2k33KQ6d6h8Lt7DKZo5jOz8P3uiAO+9vdX0fkY911mdWLRv2L04vj8Lv1j7HF7Z8m4gV/FGR1CdvPUfv8JPVv3vQJ1ojOzvPvpCLsPdOfNV182uBwj2aJrhU9/HSJl4NdcDeeqkAEmCynPdX7Rt1Ygrksfizrk/1PUy6nUuAYClOu2XwTx3Sm+jsu0xMXnn3Hu5wk5Zz8xDOe++BVj7XCCcff2MDG47Zx5Wozp9//deZN45F/Xv12GsbRyum3Y9PvrD7pj0dGeeU15upBGskxJ7aSUGMaoOKvI/IehVjDoRaIIYyAx5wajkkkutcrguZWKqaY+KWXi9tAG+6AxHkD8bg0kAACAASURBVEaKWQ8j0JfDx2PPzh2qsHc4RFYny3sNqsaixijxmyekjcT1qZMn0Pz5ftw594dhCW+j+6HX6UV5vrxHlps+l5GXUZuTaXSt0egopUUpKgFgYuok+dhXpUzEZZdfHtSjuf79Oky/cYauyNqzcwfG2sap1k+74SZ82XwA7W1f6+6n10Mf0O/00h+06QPEIEa2RToCkDqqEEOMYSUYAeDWH2Thi898yF/+Y/x46c/Dess/cfxokAdGL1dqz84dQeMgMkKF/4w8QNohRoBgTyLP+3Hq5An8qmQ9Fj76U8NrFsW+wauVvbSZZyhcwaiEWye9b+nth/+M5s8/xXLXagTGJYPK4LYf/jOeVdaJIhz9X+//Pqgzi7ZOWC9oJbzcS5Z79uOlP9f1Hvn++CGEY0dxbfr0sK4/0k4vgYHGEXL8SCXMy2g03BHQN9TU08UlXGH8ft17yHtkOVcsGvX+5i1jPYyV+ZCf+j5WbXPJpVbcOffewIgGvWkPvDFFlShFrZY7784xbPf97fRi9FvVkojOZUSU4eYWBtsrfr6i1PcizMtlJIgBzrATjJdcasW4CVcBALd3tBFjrxyPjb8NnUh//pyIsbYrAQTCrsqHEhuEO+vuH+oeR69XbqghRkIN3wLwBSegzucDgJ3b38UnH38UJIZPnRDw7emTusfXg9WJxWLh1skb7g24cy6vTgKv7mmTp8ihaUb74T8HQtKsTgwMsLYXtDIkDfQJSr3cM/mcbV/j7bc26XbYAQJ1ZLFAzm/UG9bFCKVY+dT3MabdMMOU0GAdMfIeWW4qFHtOFPHd792Ipf96j2rIGJajN+2GGSE7tCivLVRI2gxTr5uGlIlXY8e7W5F551y8+mIxfvZEge64p7zhbBhXJI/Fwkd/yu3RHq53X68+J/3DNdjg2WR4f7TtjRiqKFyNSmHIvuuNuUgQg4AhKxj37Nwhh5Sef+Yp2RNY/34dPtqzCyueWqs7bE1/ueRSK2b880zM+OeZclnuntnnjfrx0p/HLa9K2ZPzzLffYkLK3+Prli91PR1sSrM5996Pf/tZPoBgL8qTvb2PefT0dOODuu2QJAl33v1DJCWNkMumrZN5t34vsJMk8euEO/uBWhCqurwYvKyH8jDyBKVWZCg9rvGcASYcYaOXP9nyZTM+3PN/cP+Di1X3jt0T55Nr5ekvGfPuW4Af5T3S/wsIEzaqwfPrntTthW1mOBtG2uQp+Mmqp7nDUBFEWBgJPRP2qg9je0UQA5GEzyUdTSrffA3PP/OULBR/39Akf9i4hceO/A3ujZW4O2cBNv52B95+a1PY8wiHi3Y8vo/27EJ729cxOx/QN/c1G/uN9Uiec+/98oDKZufGZh5PVpdGD9ye7h78z9et+LO/Bd3d3X0r2HyovW/cYdWJmTdxCTCywPPuWwDvHp98DRt/uwOXj0k2POSYK5JlL2Hlm69h6b/egx89tMRQwLEhg8x6BCNFL9T8p4NNKu8m4/ixI2g+8Cm6zp7RPeYVY22wT71O/v67mm1o+bI5OgUOE98fP5R7IL/6YrGqbSh7aTufXGsqt5INQ/XFZ75+zZVNDBM09oq/3mjfUMcHSDESg40h5WFkgwFr0RsuhwmhyjdfQ9HqFXhy3fPY8e5WVbK7NvFdrxcpzwvCeoHap16nmmpPOV8zryez0YDEeiHlefctwD33/wteLPrf8Ld8iR8v/bkqtMo8h4C6V7DS+1ny+m+Q9h07vj19MmRvWS2sM8DIUaNkz6SK3jftys2voaK3Tsq3bu+rk97p/nz/twEvvralr04sFuzZuQMvFK0GEBgSx6J8a5ck1LM66c1fVNaJXkeeUJw6IcjjMLIp73jjYvLm3nbccqupIYMi5Z77H5QFP4+S138TVM5/nnk7/nnm7dztlW1O2R6ZMON54kPl7umlRYQaH5H9VpXtt/nzT7D0X+9R5QCGG+IHIksNMMPhP7eaGgIr1HilxABCzkVEcL6h7GXUGRonpGCk3EVicGKRojQZofYwkiShp6cHANDT0yN/v3jxovz34sWLuHDhAi5cuIDz58/j/OWTolGUhKKcbizUeI5KT0kse0uHg9nOMUp4s+so2frma/jNf7wKAH1ikJdvKEmBqfzKnsOV403Uicmk8ebPP8H7ddvx2Mqn8NEfdsviiOXs8UQfYDxvcjQw6vQSa5Qi0cx1hsoVjPT8TEACkAfM1zuH0exH0SScEQzMTl8YrWkOiXjAEYI69ios4UedXIgIueTbw7jkkkswatQojBo1CiNHjsTIkSORlJQk/7VYLEhKCgSN2Xcl2u+RQIKRSABSX/KhxlsYtIwgCCKhkL0iEstAEYxDKoeRGAiwUA1vlWx1+UaWDC9BEHGF7BVBmIUEIxF9uPZXJxyjdXCTESYIIp6QvSIIU5BgJKIMf5q/wIs8jTtGEMRAguwVQZiFBCPRD3SGnDDz1s0SwOkNnSCIuED2iiD6AwlGIhjTb9YhjKfyOBbFmzz1FiQIIlqQvSKIuECCkeg/hm/tGiNMb+kEQSQSslcEEREkGIlg2GC1DPZ/9rbNexPXg9KACIKIJWSvCCIukGAkOGgSwZUzHPDsrdZgq9bR2zlBELGE7BVBxAMSjAQfi8YI963gGFzttpT3QxBEHCF7RRAxhwQjEQE6+T5ArxGmvB+CIAYKZK8IIhqMTHQBlFx/9d8lugjDF703bKM3b3orJwgiEZC9IoYRX36Z6BIEIA8jEdqQGg1bQYPbEgQRT8heEURCIME43AllQHVzg0BDThAEEV/IXhFEwiDBSJARJQhi8ED2iiASAgnG4YR2TDKzGL21EwRBxAKyVwQxoCDBSJgzrBTOIQhiIED2iiASAgnGoQ7PuOrNmWpmX4IgiFhB9oogBiwkGIcyWgMa6q1bO70WvaETBBEvyF4RxICGBONQx2hMMt42LG+IjC9BEPGG7BVBDFgG1MDdRJywWIINLRlcgiAGImSvCGJAMOw8jD6fD4sXL4YgCGHvZ7fb4fV6Izqvx+OJeF8A8Pv9yM7OhsfjCV7JjKkmpON55RXV9v0tQ7SJaZ1w8Pl8yM7Oht/vVy33er0oKCiAKIqmzy0IAhYvXgyfzxdWmZWIooiCgoKI68Dv92PlypVht2WzsPsTyXlEUcSzzz4bVNfabQoKCnTr0Ov1hry3ZrYJhV67IGKEjr2S1xEEMSAZUoKRiTq9z4cffohdu3ahsLAQNpvN9HH9fj8KCwtxzz33oLy8POwHiyiKmDlzJsrLyyMSB4IgoKioCOPHj0ddXV3wA1aZ69NrcH0+Hz7x+bDwoYfkzbKzs1FeXq7eX2OgmRAyqkfeJ9yHdszrhLO9x+PBsmXLYLfbQ5atP0IuXtjtdkydOhX19fUxP88dd9yBiooKeRmvnfSnvlidK4/ncrngdruD2preveYdQ/vhvRg4HA7MnTsXmzZtUq1jLyTaYwz0djHg4dgr05CgJIiEMaRC0g6HQyXmPB4PJk+ejJycHAABEVVeXo7y8vKgfTMzM+F2u4OEpN/vh9PpxLJly5CTkwOv14uioiLutuycbrdbt4wulwsulytoeVVVFRwOR9ByQRDgcrngcDjgdDrh8/mwtrAQZWVlAeGjDM30hm7Eri5UV1ejfu9e3Hzzzer1ABbMn68+icWCxx9/HE6nEwCQnJyM3bt3hxRWDK/Xi7a2Nt318aiTwsJCeDwe3TJXVFTA4XAgJycHfr8f27Ztw+OPPw6r1cota1VVFVJTU3XLLAgCjhw5ors+XixcuBDr1q3D9ddfb/p+MULdF4by3vh8PtU+7B71x8vX0NAAACguLkZxcbG8nLUr1i7Notdu2PGsVit8Ph/ma38HACorKwEE7IHT6cTUqVNRUVEBm80mt7u0tLSwykOgT+hx7JUcauaFnpX7EgSRUIaUYDSCeZjcbrcsIIFgUalEKxYByH+Z94MnGl0ul+mHHHsI8WDnnzt3rnw8h8OBZ4qKsGLFioBovOYa9U4WCzZu3IitW7di27ZtgQdnr8H1er3Y19iIgoKCPqEUZsK43+9HaWkp1q1bF5aXNtZ1UlRUBKfTGSQaRVFEcXExUlJS5O3tdjvuuusubNy4UV5WWVmJyspKVFVVwel0wu/349lnn8W6desgCAKcTicOHjwYVB6e6GCwtsbKwMSIlsrKSu71atsqQ9lmbTYb7rjjDmzatEl9X02idw7AWLDphae1IlT5cqb3UuZ2u9HZ2YmvvvoKa9as4ZaRkZeXh4KCAuzcuVNVZ263G+vXr9e5ygDKlxqHw4Hdu3cHvTgoXyY6OjpU+9fX1yMtLQ3Tp083PA8RBkwkar8bdXIhCCIhDDnByHvIiaKIkpIS1NfXqzwPoiiis7MTM2fO5B7H5XJxvRU5OTlIS0vDwoULDb1aDDMeMN4+8+fP5z7QHQ4HysrKsGLFCixViFlW7tbWVtx7zz2YP38+LBwxuHXr1r4vkoTMzEy8pCN+Y0Us6sTj8QQJ/K6uLrS3t6OyspLrTZs8eTKAPiHCE1x2ux21tbWqZX6/H8888wzWrl0bVH49T5S2LTEhmZGREXQ94XjsMjMz8cEHH6CjowOpqam6x+Rx7NgxLF68OCisnZeXpxJGRmVV4nQ64XQ65e1zc3Nlz39paam8nc/nw65duwAE6uWzzz7DLbfcoooQGAnWnJwc2ePPthFFEU1NTapzKAV9enq6ql7tdjsuu+wy7Ny5Uxb2mzZtQm5ublA7EAQBH3zwAVauXBm2KCdMQB1aCGLAM+QEIw+r1Yr8/HzMnTsXdXV1EEURVqsVHR0dOHz4sEooMQ/WjBkz0NzcrPI8KAWCw+FARUWFLAyY2NA+3ERRRHV1tW7unM1mw+bNm+XvSu+az+eDbexYbjjHfs01ePvtt1G8fj1qqqvxktsNQRCw54MPsPrpp/HqK68ECRSv14t9+/b1CSNemEhRDp6QYGzfvh1AQKxkZmbq1j2A6NeJjrC12+145513UFxcjOrqatmbpTyW9hpLSkpw++23B607cOAAxowZg9GjR+vue/ToUf4FxwBl+9Nis9lUYiwjIwPV1dXIzMwM+RIwbtw4bN68OUjgAYG6bmpqgiiK8m9lyZIlqv2VgsxMeJvR3t6O73znO7LA+8EPfqDrxdUe16y3WpuiwmPhwoUoKSlBZmYm6uvrkZKSwg1nV1RUYOrUqWGH/Ycdep5BvXCzcl04xyYIIu4MecHI8uNYTtLhw4fR0dEBu90OQRAwadIkOVeNeST0cqC0MDHi9XrxwAMPcL1lTU1NaG9vR35+fsjjMbFaVFSEhoYG3OxwcEM2kiQFPIeShLy8PPzbo4/i5ptvxrZt2/ByaSlEUYSEQK6i0sQyb+PWrVtVYvG2224LChXyhBYr34QJE1Tbe71enDlzJuT1RaNOzNyXvLw8PProo3A4HKiqqgLADx2zECkAvPXWW5g2bZpqfVVVlaE3acKECXHzymrbqhGZmZmBHNb6elNeRgDo6OjA6dOng9pve3s7urq6dM+vzWEURREvv/wy7rrrLrS3t6u2bWlpgd/vh8PhQFtbG2bMmCELRp4X1yxnzpxBQUGB7BE1ShNg97yiokIlRJXpAmw5C3GfO3cOnZ2daG9vhyAIcfXEDyqUYjCS8RGNtjd4uSUIIj4MecGoDF+KoohJkybhwIEDsNvtaGhoQEpKiiwKlB4J9gA048lg4THWS5tHKKHDHmTsoem46SbVuf1+P8pKS7F27VrYrryyb8deQ9ra2hp0zG16HsY1a2DV8ZzpwUKKRUVF2LJli+n99DoXABHUSW8nF22Z9PIp2b30+XxBIWdliNTIC6lHQ0MD0tLSuB5IQRAgSVJUhYW2rRphs9mQm5tryst48OBBlJeXy5495jnOy8tDXl4ekpOTce7cOVRXVyMjIyPk+Vne39VXX43k5GTVua+55hqUlZVh9erVOHPmDK5UtmMYtxWG8vfM0kZYqDk1NRVNTU3YsmUL6urqVN5Stv2+ffswevRoOXRuhN/vxx//+EdceumlKC4uhsfjQUlJSUS5okMerdjTGzvRyMuod1yj9QRBxI0hLxiVWK1WOVyXlpaGxsZGbogvUni9tAG+6AwpSM0aSINwjvbhq/IwApAU+zFBxcPr9coh3nDH/ItqncSIoFC9zjKGIAjw+XzcXDcj9MSQUacX5fnCqRezXsb09HQ89thjKCkpQX5+Pmw2m3wfJk6cCCAQnj99+nTI1AO2bXp6Os6ePYsTJ06o1qWmpmL58uX47//+b6xevZo77qVRLql2TNHJkyfD7Xajra0NdrtdPt7o0aNlwTx9+nRYrVaIooh9+/aFfc+ULF26FMXFxXLOI6EgCvaqX8clCCLmDCvBCABz5szBvn37MH/+fLhcrrByko4ePYqsrCzVMubd0B7H6/UGDUHC8Pv9wWJV8dbt9/uxYsUKNDc3Q2UuLRbZA6QMTW/7z/8MeFJ697darUFDlAiCgHXr1mHlypWG19zV1aUqJ+uRzDxw/RkkOuw60azXy3GT60SBNq2A9YJWwhNAzGvlcrlU9aekvr4eR44cwfXXX89dr0eknV6Y4A6nrTIvo95wR8oOX/X19cjIyJCHjmlpacHKlSsxevRojBkzBo899hhcLhfXU6kUwQUFBfjss8/kQb4tFkvQPna7PSj0r4R3n5SwtsPEs96YiNOnT0d1dbUs7nbu3CkvZ7B7zaOqqiqo7OyF02gIqWFDqPCx0TA5ofYnCGJAMuwEo9VqRUpKCgBwe0cbMX78eFPjE4qiiHHjxgEIeNiUYTQ24PT9998ffJxeI2q327Fjxw7VMjn8unZt4EHGMbahhm8B+OIKUOfzAcC2bduwd+/eIDEsCAJOnjxpeP08Iq6TXvR6Kpsd4scoJA30CRW3223YUcLv96O8vNxwAHCtWGICPhyU3kSWu2kmxM06CDmdTtNesHHjxmHDhg0AAkPPKDt3ZGRkYP/+/cjOzla9dLCyKHMYP/30U1xxxRVITU1FbW2t6TIrMethDIXVasWSJUvgdDrlHGa32x10XG0HGqMhnQgNkQpBEooEMSgZsoLR6/XKAkiZ51RbW4u6ujqsX79ed4iW/mK1WjFr1izMmjVLLgt7AFt6B8kOOicvVKP5btGu0xhePc8i68l9+vRpTJw4EYcOHdIdQ5J5EBcsWIDVq1cDCPbu6e0LAN3d3aipqYEkScjNzcWIESNC1gkQuEexDPOF8jDyBKV22BylxzWeIclwQtF6+ZNffPEF6urq8G//9m+w2WyqTi42mw21tbWqQcvZsaqrq+XOPYIgqMLM2hzFa6+9Fk6nkxtCFwQB3377bcjym/UwmsFut2Pu3Lk4ePBgROKVR1tbmzwU07DGhL0KWkdCkSAGNUNqakCPxyMPqA0EHvDsw8bo6+zsxDvvvIMHH3wQu3fvRnl5edjzCIeLajw+ScLOujp9L5besBRKlFNr6cA64LD6YD2SFyxYALfbLYfjzUxzxrx7rC6NxFJPTw9aWlrw1Vdfobu7W3c77RiFdUZ1EgXy8vLQ3NwsX8Pu3buRnJxsuM/YsWNlkeHxeJCVlYVly5YZCjg2ZFC0BIoeemHRAwcOcEPBR44cgc/nk3uzC4IgDxvEpsDr7OxEQ0MDtmzZAr/fj4qKCkiShCNHjsDv96s8p36/HydPnlSdhwmpioqKiAe41t4n5Sccz5/ymnw+Hzo7OyOeL7q6ulqeFrCzsxNz5swJ+xiDmlBCkNEPe0UQxMBnSHkY9Xo+6g2Xw4SQx+PB8uXLucNtaD0a2hxGIOA1lGdVUcA8NtOmTVOFsoXjx7Fq1SrU792r3s9igbemBqtWrdKda3X7jh1y7qK208pDDz2EJ554AgcPHoTL5VI9HJW5h8pewUpPX1VVFex2O06ePMm9TiPYw3zUqFF46qmndLdjdZKenq6uk15PaH19PXf8SCOxoBdmN+rIEwqloPJ4PPD5fNwxIJXlZmRmZpoaMihSFi5caJh/y8u/mz17NmbPng2gT9RmZGSgqakp6LdRWloq55u+/PLLqK+vR3V1NS6//HJZCOuFyX0+H+rq6uDxeFTh3/b2dtO9vHmwnEsmSpU9qplHlNHQ0CCXgdVRcXExd5Ygt9vN9Voq7Uhubm7Q+JODnmgMeaPXgcWMiCQIYvAhRYmenh7Vp7u7W7pw4YJ04cIF6dy5c5IoitLZs2elU6dOSSdOnJCOHj0qffPNN9Lhw4clv98vHTp0KFpFSQw9PZLU0yOVlZVJU6ZMkaZMmSI1NjYabt/V1SWtWbNGKisrCzpOojh+/Li0YsUKqbW11fQ+NTU16mvQYLpOJIlfJ/2ksbFRWrNmjdTV1SXV1NTIZWHnOH78uLRo0SJ5OfvU1NRErQw82LXG+jxaWltbpQ0bNkhdXV266x9++GG5DbByzps3T2ptbZW6urqkDRs2SK2trXJ9zps3T2psbFS1HWW9sn2VsOOyNqG8T8r17H7wjtEfeO2WlbmxsVFqbW2VVqxYIR0/fjxq5xwwhGtn9LZNsL0iiOHAoUOHJL/fLx0+fFj65ptvpKNHj0onTpyQTp06JZ09e1YSRVE6d+6crLm6u7uDNFk0sEhSdIbP1x5GkiT09PQACIQp2feLFy/Kfy9evIgLFy7gwoULOH/+PK677rpoFCUx8MYL01Ytbx0vaZy3nCAIIlqQvSKIQcOXX36JSy65BKNGjcKoUaMwcuRIjBw5EklJSfJfi8WCpKRAliH7roQ3TXC4DKkcxoTCCyGz3B29ddplBEEQ8YDsFUEQYUKCMRaEa1TZ9vS2ThBEvCF7RRCECUgwRhMjw2n01s6WU29CgiDiBdkrgiDCgARjf9HL++G9tfOMqzYMRBAEESvIXhEEESEkGPtDpIPRUh4QQRDxhuwVQRD9gARjpBgZ33Df2gmCIGIJ2SuCIPoJCcZYQ0Y4gCSRp4IgBjpkrwKQvSKIIEgwmiESwzEcjSxBEImH7BVBEDGABGMotENI8NbpQUY4gDIcRm/tBBE7yF71H7JXBMGFBKMe0TIUZIT76oDqgiBiA9mr6EH2iiC4kGDkoXzDDHfmA3ojDQ3VEUFED7JXsYXqiCAAkGAMRs84hDLC7DNc30rNGlUK9RBE9CB7FRlkrwgibEYmugCDnuFqcJUo86bM1IfFQgaYIBIB2SuyVwQRIcPXw6h8y1ZixoCQ8eijP/PJUj0ShDnIXkUHslcEETHDUzBq3yzN9iikt/NgtNOEhRvqIQjCGLJX0YPsFUFEzPASjNo3dL0EceX2et+H29ummYFsI8n3GW71SBBmIXsVOWSvCCLqDC/ByNC+LRp91yaID/c3zWiO5Ub1SRChIXsVOWSvCCJqDE/BqIfe2zwZivChN3GCiC1kr6IH2SuCCMnQFYxGCeLh5PuEu3w4QDNGEER0IXsVO8heEURUGHqCUdsLTs9YhLvc7PqhTKgcKi3Dua4Iwgxkr2IH2SuCiCpDTzAq4RgL3yef4JFHHoEgCPztdd42fT4frrHb4X3vvYjeSD0eD7xeb9j7Mfx+P7Kzs+HxeMI6p3J73TLEwlCGqCNRFFFQUIDFixfz7wUHr9cb1vbhwOrG7/dj5cqVYZ1DFEU8++yz8Pv9US+XEZGUleHz+VBQUABRFOV7Eap9CoKAlStXhrxOr9cLu92O7OzskNv6/X4sWrQo4rrr7+9K71hmy9WfOvH5fPC88krfRkaDbfPQ2Cuv1yvfU+ax9LzySsBmhSCWv62okwB7RRDEEBu42+fzYcGCBeqFCuPy6y1b8OGHH+LfCwths9lMD9zq9/uxtrAQ99xzDzZu3Ijrr78edrvddLlEUcTMmTNRWFgIAMjJyTG9LxB4KBUVFWH8+PGoq6vDzJkz4XA4DPfx+Xzw+Xxwu93ysuzsbDidTqSlpQXv31sXgiDA5XKhvr5eXmVhA9fqva1bLHj88cfhdDqDlvt8PsyfP9+wrHrXkpmZCbfbDZvNBkEQUF1dDafTidGjR6OgoACVlZUh9wsXu92OO+64AxUVFfL18OrE7Xabvo9erxculyto+fr161FRUYGDBw9GdB2pqakYM2aMqqxmEAQBHo8HTqcTVqsVAJCbmwuPx4PMzMyw6s3j8ajaGADk5eWhublZPnYsyc7ORmlpadjl1sJ+LwsXLgQQaAc333wzamtrw6pbwHydTJ8+HdXV1fD5fHA4HBBFEcXFxdjK2rXFAkmSoLRQ301Ph8fjgc1mg8vlwt69eyFpfo9bt25VfZckSdX+0nuPobRhc+bMwb59+4Lakt7vt6qqKqQNiinhzFLD7FeoMRhJNBKEMVKU6OnpUX26u7ulCxcuSBcuXJDOnTsniaIonT17Vjp16pR04sQJ6ejRo9I333wjHT58WPL7/dKhQ4ciPbHu8rKyMqmmpkb+3tjYKE2ZMkWaMmWKZGcfu12aMmWKtGjRIun48eNBh2ltbZXmzZsnH6empkZ3W0mSpLKyMvkc4XwaGxu5xzt+/Li0aNEiqaysTJIkSWpsbJTmzZsntba26lZJV1eXtGbNmpDntNvtcj2w4x8/flxasWJF8PGV9dzTo/rU1NTI+8cK3jkaGxulNWvWSF1dXarttMskKbL7wu4zuwfsHqnalRSo7w0bNhjeE0ni1612Gbt3yvbAzh9p+bWUlZUF1SU7r9F95JVfWxfh0traKj388MMh686I/rY/7f1Vlm3evHm6v022b1h1orFXra2t0qJFiwL7a39j2v30bF0vvLZvVJaamhrD9rNmzRpp7969qmNG4371GxN1YWSvCGKwcejQIcnv90uHDx+WvvnmG+no0aPSiRMnpFOnTklnz56VRFGUzp07J2uu7u7uIE0WEZr9hoaH0cTAtoIg4JXeN3+lZ8jj8WDy5Mlcb5Hf74fT6cSyZcvk9eyvy+XS9f64XC7TXgnmveLBzj937lz5eA6HA0VFRXA6nUFebd5TIgAAFzZJREFUAsbGjRtRWVkZ5AXwer3Yt28fCgoKgr0/ZsYt6y1TWWkp1q5bB9vYsaaukcHzvPDQ3iNBELBv3z7k5+fL9ZWbm4u0tDTVfkovJM+7ZeQV9Hq9aGtr4943vTCd9nrKy8vl//O8g36/H2PGjEFqaqrOleuTnJyM3bt3m/Zs+/1+lJaWBi33er1BnmcAsFqtyM/Ph8vlgtfrVdUTa4fME7p9+3YAAS+TWbTH0JKVlRW0jOcJU17bunXrYLPZkJmZCZfLJXvqwkEURZSUlMDhcATta7fbUVRUhMLCwqBy9KtOFPbKbrcjNzcXBw4cCL63SrvG8X7p/Z54nneljWH2KScnB2lpaWhoaAjyKrJlPp9PdZza2lrcfPPNYUVYoo7SY2h2aj+AchQJIhIUv7PBl8MY4kfv9XoDeUEKQyKKIl566SXU19ejra1NtbyzszNIeLDjZGVloaioKEhk5OTkwOl0YuHChaZyr3w+n6l8Lu0+WVlZWLZsWZCIcTgcckhRm7/l9XrR0tKCe++9F/Pnz8c111wjf1atWoXKykpMmzZNtfyRRx6BcOJE4ABGAwJHMi2ZBrfbDb/fr/vhieeKigrk5ubCZrOhoqICDodDvift7e3o6uoCANTX1yMtLQ3Tp0/nnvvYsWNYvHgx7Ha76lNQUICzZ8/K25nN6XM6nfD7/WhubkZeXh6qqqrg9/uxe/duJCcnB23f0NCAjIyMfodqtXlzZvNBvV4vysvLUchSMjTYbDYUFhaivLxclftqt9tRW1uL3bt347bbbsPu3bvh9/vDFmdTp06Fz+dT3W/tMdnH5/Nh6tSppo5rs9mQm5uLhoYGAIHfjpl8PBYCBoClS5dyt3E4HFi2bBmysrJU4sl0nZgQKTk//GHYaSqMUL8n7UcrMKdPn47Ozk752gRBwJYtW5CdnR10Lr/fj5aWFjlsn1DMDGAeBXtFEMOKEPZqcHkYeZPG600Mr1hmvfRSrMrPx5y5c1FXVwdRFGG1WtHR0YHDhw8HeYGcTidmzJihyjny+/145plnsHbtWtjtdjgcDlRUVMDlciEtLU322mnFnSiKqK6uxrJly7hv5TabDZs3b5a/Kz2OPp9PNy/LbrfjnXfeQXFxMaqrq+F2uyEIAj744AM8/fTTeOWVV/o8jL114X3vPX0PowJLbzkWL16MvXv3qupc6j3We9u3w2KxIPO223BbZqbusbS4XC5djypD+VATBEHlEcvLy0NBQQGAgFisr6+XH9RtbW2orKxEZWUl18M3btw4bN68WRYKubm58gPe5/OhqakJoijK7WLJkiWqcilzucx4SpUIgoCWlhbugzgUNpsNpaWlcscnAHjhhRfka7NarSguLlblWlZVVak8jEws6nmlGXa7XW7XixcvVtXhgQMHsHfvXmRlZSUkh42JWF4dKgUXu776+npdIaYUi6F+D8wTN3/+/KDogWGdhGGvxK4uFK9fH8g/5HR6kRTLWNtmhPLeMnjeT6vViiVLlmDbtm2YPn06KioqcMcddwS1ka6uLmzatAl33HFHv3JFTRFOp59wp0Qk0UgQfEzYq8ElGJWFNxmOWOVyYZXLhczbb8fPf/5zHD58GB0dHbDb7RAEAZMmTZJDhCzB2+zDkIk9r9eLBx54gPswbmpqQnt7O/Lz80Mejxn+oqIiNDQ0mCpDXl4eHn30UTgcDlkkiKIIAFjABI7mpmtDVjxxpRWyyvJNmDBBtb3X68WZM2dCltXpdIbdgYCVg4Uh8/Pzgx7u1dXVmD59unx8n8+H6upqjB49mnvMjo4OnD59OuheMW+ltl0wWLtgwkUURbz88su466670N7ertq2paVF5XGqr6/H9u3b5dBlOGkLTNy0t7ejoqICNpsNPp8PJSUlKrHD6optrwwrVldXy/uGQtmuFy5cCI/Hg9TUVOzbtw/p6elYuHChXOfsWvReAlhYub+waEBubq6p8ufm5qK6ulq3M8zGjRuRkpJi+h44HA40NzejuLgYBQUF8kuLUZ2s0tZJr71K/+538Ysnn8Tzzz+PQ4cOIfO22/DSSy+h+Je/RPEvfyl3FnvllVfw0ksv6d4zVna/34+pU6fq3l/lSygT0KyNKG2BMqXC5XLJ1wUA586dk9v4nDlzYtuhKVw7H04HGIIg+Jj43Q1swRiqV5uRoehd/pIib00URUyaNEnOF2poaEBKSops/BwOhxzmYw85Mw+UnJwc5OTkwOfz6XpvQok/Jtpqa2vl7ZXn1uZtaeGFu7eFk8PI0KlPdv6ioiJs2bLF8Fq06PUSNkKZv6b07iqvva2tDcuWLcO3336LpqYm+Vr1Qr8HDx5EeXl5UN5ZXl4e8vLykJycjHPnzqG6utpU6LijowMAcPXVVyM5OVlVtmuuuQZlZWVymaurq2WR6PF4cObMGVVPb1YWBlvO8i6ZN8wMzOPIcDgcsgA0cx9Y3bN2DQTu/6lTpzB+/HjceOONaGpqws6dO1VlBALiZN26dVi5cmVQzl9/4EUDjMjMzER1dbWul9HpdMqhfL3e9kqYZ1tZr6bqRJIgnDiBZ9atw4oVK2C/5hrZbt1+++1yTrDyjZ5FJe677z755aC9vd0wbN3S0hLSxijtCWsjodoV87yPHTsWr7/+OoqLi7Fx48awX/xCorXlet5DLWa3IwhCTQT6amALRr3kZl7+iom3TKvVioyMDFRXVyMtLQ2NjY1Yu3Zt1IqrFJyAsegMR5BGyoIFC+RQlkVhWLdu3Ro0FIcy1AtAVbder1cV9o4EdnwzngkmOhi1tbVy2A8ICJoXXngBnZ2dSElJQXp6uuzdaWpqUg2PoiQ9PR2PPfYYSkpKkJ+fD5vNJt+HiRMnAgiEGE+fPo1ME2H2AwcOID09HWfPnsUJlgPaS2pqKpYvX44//OEPGDduHOrr61UP9MsuuwyrV6/GkiVLVKkOvHA5oD+8iVbsGHXsUQpAvU4+Pp9PHrZFSW1tLe69917s2LFDDmPW1tais7MTkydPDllXgLGo0ev0wjhw4IDs9WVC3QgzXkalaNKrd6Dvt6ptu/2qE4W9kn9pvd+1UQm73Y4tW7YYDudl1sPYH5QdoyLpYGRIf4e6IS8jQYRHBPpq4Hd6iSSHxYA5c+bI+Ujh9vY7evQosrKyVB0m9DqzsN6oPOHi9/vR2Niom8/GctWU58nKysL27dvhcDjkZazTirYnI3sQtra2ysnujY2NuPfee7Fr1y7VcvYpLi4OeiCycrS1tWHz5s1RyV3iXRv76HVUYJ1L2Ke2thZWqxX79+/HzJkzMWfOHAAB8eTxeOQOMgxl56b6+npkZGTIYzuyvMLRo0djzJgxeOyxxzB16lTutc6fPx92ux1utxvHjh3DBx98gOuvvx6CIMBisQTtY7fbkZeXh4MHD2LZsmW6dTJ27NiQdcteRtinqqpKHttP2fHGLG1tbaaFHuvsoOyEYrfb5Y4ivE5jPCLt9CKKIvbt2xd2h6HMzEwkJyebesnp6urC6dOnTbdxozqxQKdOTNgr5l10Op1yWWw2Gx5++GFs2rRJTjdRYrfbUVpaqlt2lmLAE3jMi6/96Nk1m80Gh8MRlIIRM8x6GQmCCJ8w9dXA9jAylAXXDiIdpmi0Wq1ISUkBAMycOTOsYowfP97U0CaiKGLcuHEAAg96bciuqKgI999/v+5xWA9MJYYh6d63BFEUUbx+vcrrZNHUjyr0qUio1ybSb6uqwod79wblZQqCgJMnTxpefyh49ag3DIxyPUvsd7lcmDx5MiZMmAC73S57d1hnJSYgeYwbNw4bNmwAEBBNU6dOlcuRkZGB/fv3Izs7WxVaZfWtzGH89NNPccUVVyA1NRW1tbVwOBy6XqzVq1fLHj0tBw4cwJgxY3TzLfXQplPw0PMihnph0SIIAh5++GGM1QyjFI7IYqLGLKyjDysvrxOSHsrUC7PnrK+vD2vIo5B1MnZsn53SduIwsFdNTU1ISUkJEncNDQ2orKxERkaGyoNsZmB8Jbz8bK1XmqWAxAyznVq021NnFoKIPmHoq8EhGIHg0fq16zR4vV5ZALEEbo/Hg9raWtTV1WH9+vWYP39+WDN2mMVqtWLWrFmYNWuWXBalOHK5XNE5J7uxvddvtVoDifOKvCRBELDK5cLVaWn49vRp/P3Eifjy0KG+ZHpN3QmCAAmBcPbq1asBBPfCNJp9pLu7GzU1NZAkCbm5uRgxYkTQNsxTq4UXBlZ2tGEhN+X4mMxTWFRUhIMHD+LgwYNBD1VlJxebzYba2lp5DDvWc5SN4ThhwgT5mMowszZH8dprr4XT6ZR7cStFmSAI+Pbbb7n1oyRSzxkTfKHSKXheRFEUsWnTJl3vent7O9LS0lQClgkMrafO7/fj5MmTMe81a7fb8etf/9r09m1tbUFiWhRFVFZWYvLkyUFtz+/3o7y8HEVFRUH3gXmnMzIyVMsN6+TUKdiuvDKwIIxevGwGnvr6et1e+LwQu5l0D2Wv8P7A6iPcl20AQfYq5FiK2rF1KexMELHBpL4a+CFpJSGMhcfjkQfUBqAKcbFxCzs7O/HOO+/gwQcfxO7du1FeXt43/2qM0Ian6urq+j/vMM94Kr6zDjirVq3CS2438vPzZSH4ktuNVatW4ZprrjE1Dy/zeLK6NBK7PT09aGlpwVdffYXu7m7uNszDqA2L88Le7NxsHRM8c+fORU5ODrxerzzoMgtxlpeXq8LbgiDIXjwWEu/s7ERDQwO2bNkCv9+PiooKSJKEI0eOwO/3q8LMPGHEhFhFRYXh2I9K3G63HNIGgJ07d6K9vd1UviSDiWWth1rpOQf6HuxKfD4fpk2bpts7mAnYUJ5LRkNDQ1D4P16cOHGCG2pmAl4rlC9evIhPP/0Uhw8fVuXvejweebxVXsi2o6MD+/fvNx12b2hokDurmBE3tbW1aGlpgSAI8Pv9sljUG0dRmycdL15++WXY7Xa5/YSdvxjCXoWEhCJBxBYTv7HB42FkGFyU3rAtesPlMDHi8XiwfPlyuN1uVFRUqN7utW/6PM8YwA/1MC9Wenq6KgSrHS9P25NZmaBuUVyvJElySJktZw+/vLw8PPTQQ/jFE0/g4MGDeNzlUj1YlA9Xm82GNzdvBiQJ3vfek8tVVVUFu92OkydP6l6nHqzMo0aNwlNPPaW7nZ63SDtfc15eHjc82NTUBCAw0LLH45HnAGaiRXlPFy5ciBdffFHu9dzU1BTUDkpLS+V805dffhn19fWorq7G5ZdfLoeZ2RBHWmHk8/lQV1cHj8ejEljt7e1c0aUcSkfrJTWD0ivKe2DPnDlTHisQCHhslbPjsDKz8/HmyGb7hEI793I8sdvtuP/++3XbaF5eXlBawuWXX46ysjL5O7MJLs3vhBfidblcpgQSt06UHjUFrO7T0tLwwgsvyG0hlBjk2Tc29qgZeMMS8YZFUnY4AoDHH39cjjhEBAk+ghj4hB7CKjokbC7pAYZyzmKjOWglydz8vZIkhTf/qdltdeZV1Z1L2oB4zCUdKa2trdKGDRuC5pZWrlfOjcvuCZuvWzlPNJt7l80vrKwn5XzPoeb6liT+fM7K8yvbDpsDPdF1zNpGU1NTUBm125htPwNibuJ+YLZOVq5cqbrGrq4uqbKyUm6XZud/17Yv3nzqPHjtSpL4c00r74nZ46uIo70iiOFAwuaS1mCRpOgMYqU9jCRJ6OnpARAIU7LvFy9elP9evHgRFy5cwIULF3D+/Hlcd9110SjK0CKc6a3MJIcTBEHECrJXBBF1vvzyS1xyySUYNWoURo0ahZEjR2LkyJFISkqS/1osFiQlBbIM2Xcl2u+RMPhC0sMFnjHt7xATlDROEEQsIHtFEEOewdXpZbgRjrGk8coIgkgkZK8IYkhDgnEgQ1NeEQQxWCB7RRBDGgpJDwSMQi9aI2yU90Nv5ARBxBqyVwQxLCEPY6JhBlU7aKZ2OA72nTfPo/JY9JZPEESsIHtFEMMWEoyJQvnmbWRYjd7MeVNs0Vs7QRDRhuwVQQx7SDAOdMJ5AyfjSxBEIiF7RRBDlpgKxlDj/kRjXKAhhVH4hiAIYiBB9oog4k4iddWA8TAOWfHI8nQiNao8o8ySzodqnREEkRjIXhHEgGOg6KO4C0Z24QOlAmKO0UC2PKNslO/DDPlwqTuCIOIL2SuCGPAkSkdFbVgdi8USND1gOPsOKbRDSVgs/Q/bDLU6IghiYED2iiAGPP3RSdHSWAkPSQ85sQjwwy96343e2gmCIGIN2SuCGBQkWi8lRDDy3KmJroiEoGeEKYmcIIiBBtkrgkgIPK2UCM2UcA8jMIjFYjgJ4nrb6OUADdY6IQhiYEL2iiAGLQNBJ8VNMFosFvnDvmv/RpoDmTBCzWQQznH6ewyCIAgjyF4RxKBDkiRD3aTUVbEmLoJRL/SsvfjTp0/Hozj9R292g1AG1Oim0ls6QRCxgOwVQQxamC4KlcoXD9GYsBxGrUJOSkrCsWPH0NPTk4gihUe4N4bexAmCSBRkrwhiUNLT04Njx44hKSmJq5viTcwEo5kLU7pTLRYLRFFES0sLjh8/PjiEYzjQ2zhBEIMFslcEkTB6enpw/PhxtLS0QBTFIK3Eg5fyF22iNg4jEDoPkXfRTDknJSVhxIgREEURra2tEEUR58+fx4ULF3Dx4kV0d3dDkiT5wyOhOZBGA9TS4LUEQQwkyF4RRNww4zQbMWIERo4ciVGjRuGSSy6B1WrFpZdeCqvVqtJJ2v3iOVVgVAWjFqWA1IpJdvE9PT2qyhg5ciR6enpkDyOrSLaMHcNIOEYdMwaUjCxBEAMBslcEMaDRegOTkpJkpxkTjKNGjcLIkSNV+kj5V3s83v+jTVwEo1Y4JiUlycuVOYxMYTNhyMRid3e3SiyGClfHTEiSkSUIYrBA9oogEkoo8ab0GCo1EBOLI0eOxIgRI1Q5jErNFO/xGaMuGI3C0rx1WnXNPIfKCmRikReSjok41DO04S4nCIKINWSvCGLQoBV5WhHIhKJWMPI8i9rjhbMuEmLqYVTC6xWtFICsopTbK0PUkiSpvIxAAjyJ2jlXQ21PEAQRa8heEcSgQisaleFmpaeRfdhy5SecPMZoEXPByMtd5InGESNG/L/27mg7QRgGwHCQ4/s/sWe78ERjlrYqNLTs/24Exma5ycnSpoiIPD7tdLSvLEaJ4lfJo39bgb3+yYJwAjCA3ohXwLRq1UHf/KJJoz0uJYut79hTl4QxShKVXbsoIi9Jo733crnI7XZ7mab2FUZrU7XR/ydOAAYwKuIVMJ1ap7RPAtd1lWVZwuqi/k7rbS89ksf0CqPtjPaVQ33A6/X6uMdOR2v1sVZp/JoPomw7AWBUxCtgWlGDip+W1vOouui32fF/t5duCWNUZfRb7NjkUa+LPKuQNmEUaXdHbxIF4Pug2vcCQCbiFXAavlvafmq1MdqLUWVNTaftwyjyrC76PRiVrRzapNKvc+yyB2Np6ub+IPX7ACAT8QqYmp9GLm2b4yuPfkudzCpjSpe0TRw1UbTH+vCaTPq9G1tveNms9d/580H6fD8AvIt4BZyKX4fo1zX6Y2WPMzql09cw6jUReakg+nWNUcJodV2/CACjIl4B04umkaNGlmij7tJWOr2TxuUn6f16pQ23tdpoz31TS/e1iyIEYADjI14Bp+XXJ0ZrFktrGDMqjGkJo0g5aYz2WGztu7jjoAi+AOZAvAJOK6og1q75693Hl5kwKl8xtEOwP6sNbbc3vhCAAcyCeAVMq9bZXLqvtk7RN7z0dkjCKFJPGu159+ExxQNgFsQr4NSiKmJ0np0sihyYMIqUt8dJHRIBGMAsiFfAv1FqbMmagv7z3UcmjOqTauIAwwUAANjsneSvVHXMNkTCaKVNRQMAAAxolCTRGi5hLNmtyQUAAOBg7zbBjGKahBEAAADHyG+zAQAAwFR+AddWZV8VeDJ0AAAAAElFTkSuQmCC;" parent="1" vertex="1">
          <mxGeometry x="-95" y="-278" width="403.62" height="130" as="geometry" />
        </mxCell>
        <mxCell id="3UUtxU2mLUPDlU9XYx67-4" value="接口选择" style="text;html=1;align=center;verticalAlign=middle;resizable=0;points=[];autosize=1;strokeColor=none;fillColor=none;" parent="1" vertex="1">
          <mxGeometry x="369" y="-270" width="66" height="26" as="geometry" />
        </mxCell>
        <mxCell id="3UUtxU2mLUPDlU9XYx67-5" value="" style="shape=image;verticalLabelPosition=bottom;labelBackgroundColor=default;verticalAlign=top;aspect=fixed;imageAspect=0;image=data:image/png,iVBORw0KGgoAAAANSUhEUgAAAo0AAADOCAYAAABb/jimAAAgAElEQVR4nOzdeVxU9frA8c+wyyqKgolLuCWugImiWHpxpbRMb+WuZVrX7GdZllG3zFZTw6XUbmLmVmqFXjW19KopoFBirojkDgooIJvAzPz+wDkyMDMMO+jzfr3IOMv3nPnOzMNzvss5Kq1Wq0WUpNWCSlVyGZRcXto6IYSoShKvhBDVwKKmT6BWMpZH6wJsaeuFEKK6SLwSQlQTq6oq+HRiDluO3uSNwQ/oLX/350u0bmTHuF6NSixfH5lissx3HvcssV+VUKmMB1ohhKhNJF4JIapJlSWNRRlKCD/YehnQTwRXTmpFYFtng2UciMvg7+TblXtixQOtOVfeugBdtDtIArYQoqpJvBJC1LAqSRqLJombom+w+vlWtG5kx4ONbJWkcPXBZIDqaTksztB4nuKBVbesvIFZCCEqg8QrIUQtUSVJ45wnmjHK302ve7p5Q1s+2X6F9g/Yc+pqNvHJucx5ollVHN48xYNl8S4eU10+htZJ8BVCVBWJV0KIWqDKu6dPJ+Yw7j/nuJmVD6DXTb0+MoVHH3IhdFTLqj4NfWUJmHI1LoSoSRKvhBC1RJUmjZuib5B5W83hdzoChV3SNd7CaIyhq3Rj3TgSmIUQNUnilRCiBpSaNB6/nM3Svdf4Pe4Wuflqg9uc/cRH7/fJqxL43+l0nu3hRn9vF9q8+afe+qKtjc/2cKtQElm87PIoHk61BtdpSywpvq0QQlQ1iVdCiKpgZ21J77ZO/KuvOx097Q1uYzJpPH45m2eXxxtNFo35eoKXcsudwLbOxM7pwts/XmLKI415qEk9AD7bcZWhXV2V32uKfpA1dTUuwVcIUbMkXgkhqkpuvppfT6Txe9wt1k9pbTBxNJk0Lt17jdx8NSO6NeT1wQ/QwKF8vdmpmQVcvXmbx0NP887jnsQn59K6kV2lJIzFWznLRZ6OIISoKyReCSGqwI2sAubtuMqm6FSW7r3GV2MfLLGNySzw97hbABVKGAGaNbDh+xfbciAug0krzwHg1ciOIV1ccXO8W65unTHvPO5Z7nMolQRgIURdIfFKCFHJGjhY8frgB9gUnarkf8WZzAR13dJlTRh192l853FPVh9MVm7k/WwPN6VlMCWzgNHLzzK6h1vN3dxbCCGEEEIAd/M9Y8MSVVqt8ccD6CaZVEoXcG0m3T1CiLpC4pUQogqZyv0sqvtkhBBCCCFE3VMtz56u9eSKXQhRV0i8EkLUEGlpFEIIIYQQpZKkUQghhBBClEqSRiGEEEIIUSpJGoUQQgghRKkkaRRCCCGEEKWSpFEIIYQQQpRKkkYhhBBCCFEqSRqFEEIIIUSpJGkUQgghhBClkqRRCCGEEEKUSpJGIYQQQghRKkkahRBCCCFEqSRpFEIIIYQQpZKkUQghhBBClKpaksbY2FimT59Oeno6ABqNhp07dzJ8+HC8vLyIiYnhypUrrFmzhhs3bgAQExNDcHAwCQkJVXJOeXl5zJkzh507d1Z62eHh4YSEhJCbm1tiXXp6OtOnTyc2Nha1Ws2OHTv4/fff0Wq1lX4e1cnU+1XWus7NzSUkJAQvLy+9nwkTJnDz5s0S29dUnerOc/HixQZ/v5feX9D/Ht+8eZMJEyYQHh6urE9LS2PZsmUEBQXh5eXFmDFjiIiIuCdeuxBCiGpIGrVaLQcOHKBHjx64uLgAcO7cOb744guefPJJIiIiaN++Penp6axfv56kpKSqPiUALl++TGJiIl27djV7H1PJoLni4+OxsbGhdevWaDQajh07xsGDBykoKDC7jJiYGKMJVG1U1rrOycnh8uXLfPDBB6xbt075eeWVV3BwcCixfW2t0/KeS21k6HtcVHZ2NgsWLODUqVMsWbKEw4cP88gjj/D2229z/PjxGjhjIYQQlc2qqg+QnJzMiRMnePXVV5VlGRkZWFhY0KtXL9zd3QHw9vZm27ZtVX06iujoaNq2bYubm1u1HVOtVrN//366d++uJD+zZs2qtuPXlLLWdV5eHnl5eTz00EP4+fmZ3LY216m1tXWtOZeKMvQ9LurMmTMcOXKERYsW0aZNGwBGjRrF6dOn+f333+nUqVN1nq4QQogqUOUtjfHx8Tg7O9O0aVMAFi9ezMiRIzl16hRBQUFKy5053dFpaWnMnz+fwMBAAgMDCQ0NJSsrS1mv0Wj47bffePrpp/Hy8mL48OFs3boVtVqtV052djYxMTH4+/tjaWlZ6r66rrgZM2awbt06vL29lW45tVrN1q1bGTx4ML6+vnz++eekpqYaPP/U1FTi4uLw8fEBSnZn6o6zYcMGwsLClNe5bNkycnNzle1HjhzJ/v378fPzU/YFSExMZPbs2fj6+hIUFMS6devIy8vTO9bKlSt5//33GTp0KAkJCYSHhzNhwgQOHjzIiy++iJeXFxMnTizROlS0bEN1b0zxuj5x4gQjR47k7Nmzyja6c/vmm2/QarVkZWVhbW2Nq6trqeXXZJ2Wpvi5QGFCvG7dOoKCgpTPy8qVK0u0YJs6bkJCAsHBwfz66698/vnnyjY//fST3mc9NzeXtWvXMnjwYDp16sS0adM4efKk3jma+/qKf4+Ls7KyYsyYMXrr7ezsaNy4cZ1vZRVCiLpg9+7d7N69u0qPUaVJY35+Pnv27KFfv37Y29sD8NxzzxEWFka7du34+eefmTVrFra2tqWWpev+unjxIt9++y1hYWEcO3aMr776SvlDGRkZyYcffsjkyZOJjo5m8uTJLFy4kD179uiVlZCQQE5ODh06dFCWmdrXxcWF0NBQPvroI0aMGMGhQ4cYOHAgANu3b2fhwoVMnz6dXbt20bp1a8LCwgy+hmPHjtGkSRNatGhh8rUuW7YMGxsbNm3axOzZs1m7di379u3D1taWWbNmERYWRkBAAHv37uW5554DICUlhffeew8nJye2bt3KZ599xqZNm/jxxx/1xpStXr0ad3d33n33XaWVNyYmhvXr1/Pyyy+zd+9eGjduzNKlS5UxqElJScycORN3d3d27drF8uXLOXbsGCtWrCiRkBdXvK5btmxJ8+bN9ZKXq1evcurUKfz9/VGpVGRnZ3PlyhXmzZtXapJaG+rUXFqtlu3bt/PVV1/x2muvGf28mHvc0NBQOnXqxI4dOxg/fjwLFixQkn21Ws2qVavYtWsXn3zyCXv37qVLly688847nD9/vkzHMfQ9Lq5Tp06MHj1ab31mZibnz5+nffv2Za4rIYQQ5tMljFWdOFZp0piUlMTly5fx9vZWltnb2+Po6IiFhQWOjo44OTmhUqlKLSsqKopTp04xc+ZMvLy8aN26NdOnTyciIoILFy4AhclPQEAAvXv3pkGDBgwYMIDXX38dK6u7vfBarZaoqCi6dOmCs7OzstzUvhYWFri4uFCvXj1sbGyoX78+dnZ23Lp1i19++YUXXniBQYMG4ebmxrBhw5g6dWqJ88/Ly+PQoUP4+/tjY2Nj8rWOHTuWUaNG4e7uTlBQEAMHDiQuLg6VSoWTkxOOjo5YWVnh7Oys/JHevn07FhYWvPTSSzRt2hRfX1+mTJnCzp07SUtL0yt7ypQpdOvWTenObdOmDbNmzcLb25sWLVowduxYrl+/rrSYnjt3Dk9PT8aNG4ebmxve3t4EBwcTGxtLRkaG0ddhqK4dHBzw8/PjyJEjSstaQkICHh4eeomfq6srgYGBrF69mrfeeotdu3bpXSDUpjo1V1paGuHh4fzrX/8y+Xkx97jTpk1j4MCBuLu788QTT9C5c2clIbxw4QK7d+/m1VdfpUuXLri5uTF27Fjat2+vXESZexxD3+PSaLVaduzYgaWlJQ8//HCZ60oIIYR5iieKVZk4VmnSePLkSTw9PfHw8KhwWcePH6d9+/Y0btxYWebh4YGtra0yecHPz49Dhw6xfv16rl27hkqlYvDgwfTt21fZJyMjg9jYWKVVS8ecfYtLTk7m0qVLtGvXTilLpVLh6OhYYttr166RmJhIx44dS32tbm5uSnnW1tYGJx4UlZubS1xcHJ07d9bbtkWLFuTm5upN7ihato6zs7PeOesSe51evXrx6aef6nUX67r1TTFW176+vly4cIHk5GTy8/OJjIzEz88PJycnADp27MjGjRsZNWoUHTt2ZMiQIbz++uvs3btXuUCA2lOn5rp58yapqakmPy9lfS91infnX716FXt7e5o1a6Yss7OzY+7cuUyaNKlMxynP9/jw4cN89913TJw4sdS6FkIIUT7GEsSqShyrbCJMdnY2e/bsYdiwYVhbW1eorIKCArKyslizZg1r1qwpsT4xMRGAnj178vHHHxMWFsaCBQvw9PRk0qRJDBs2TGmJOnHiBPXq1cPLy0uvDHP2NcTV1dWsP4oRERG0bdu2UhLo4goKCsjIyGDdunXMmzdPb52DgwPp6ek88MAD5S5fo9EQFRXFt99+y8GDB5Vu4j59+pjcz1hdN2/enCZNmnDmzBlsbGyIj4/niSeeMFlW8+bNAfSSmbpWpwUFBTg5OZn8vJhzXHM+b6mpqVhaWhptxTfnOFC+73F8fDyfffYZU6ZMwdfX16x9hBBClE1piaFuXf/+/SvtmFWWNF65coWMjAxat25d4bKsrKxwcHBg6tSpTJ48ucT6evXqAYWtNv7+/vj7+5Ofn090dDTz5s0jJyeHcePGoVariYqKws/Pr8TYrNL2NSYzM5Ps7GyT56+bDDJs2DCzWujKStet+sEHHzBkyJAS6x0dHUsde2hKZGQk8+fPZ+bMmSxevBhra2tiYmL0JngUZ6qu7e3t6datG5GRkVhZWeHo6Kh0TWu1WjIzM7G0tDQ6fg7qZp1aWVmRm5tr8vNiznEvXbpU6rEaNmyIWq02OvbSnONA2b/H8fHxzJo1i/Hjx/P444+bNfRECCFE2fXv379SE0JzVFn39JEjR+jQoQONGjWqlPLatm3LmTNnKCgowNXVFVdXV+rXr4+FhQW2trZkZ2fz6aefKrOara2t6dmzJ3379iUuLo7c3FxSUlKIi4ujW7duemWbs69O0T/EjRo1wsPDg+PHjyvLdElPURcvXiQzM7NSJwQUPQ9bW1sefPBBTpw4ga2trVI/zs7OWFlZVbilNyYmhvbt2+Pj46OUdevWLZP7GKtrHR8fH86fP8+2bdsICAhQuqYBvv32WxYvXqyXlCUlJWFpaal0wdbFOjXn81JZx33ggQfIzs7WSzDz8vIIDQ1l06ZNZh+nLN/jlJQU5s2bR//+/QkODpaEUQgh7jFVkjSmp6cTGRlJYGBgpf3hePjhh7GxsWHu3LkkJCSQkpLCpk2bmD59OleuXKFevXq0aNGCFStWsG/fPm7evElERAR79+6lc+fO2NnZcfToUZo0aYKnp6de2ebsC4XddseOHePcuXNkZGTg5OTEoEGDWLFiBb/88gvXrl1j06ZNLFu2TClbq9Vy8OBBfH19qV+/fqXUha2tLYmJifz111/cvHkTlUrFP/7xD06fPk1oaChXrlwhKSmJr7/+mpCQkHJN2iiqbdu27Nu3j927d3Pp0iV++OEH5s6da3IfY3Wt07RpUxo0aEBMTIxeF6ZKpeKRRx5h9+7dbNiwgZSUFGJjY1m+fDl9+vShRYsWdbZOzfm8VNZxW7RoQf/+/VmwYAGxsbGkpKTw/fffs3//frp27WrWccryPc7OzmbRokU4ODgwdOhQMjIyuHnzJjdv3iQ9Pb1CLd1CCCFqhypJGs+fP49KpSoxlq0iGjRowMcff0zz5s0ZP348ffv2JSoqitmzZ+Pp6YlKpWLkyJFMnTqV0NBQ/Pz8mDdvHs8++yxPPPEEeXl5REVFERAQUGKMYmn76vj5+dGpUyeGDh3K/v37ARgyZAgzZsxg0aJFDB48mAsXLjBx4kRlH2OTQSqidevWBAcHM23aNDZs2AAU3spm6dKl3Lp1i8cff5whQ4aQnJzMm2++WeHEqm/fvrz44ouEhoYybNgwLl68yBtvvEFqaqry2MeiTNW1jq6L2sfHR2+yBhROhPniiy+IiIigb9++vPbaa/Tt25dp06ZhaWlZp+t0yJAhPP/888yfP9/g56WyjmtpacmECRP06i82NpaPPvpI6Wou7Thl+R4nJSURExPDzz//TO/evfHz81N+Ro0apTeBSQghRN2k0pq44VybN/8E4OwnPmYXqNVqWbp0KQ0aNGDUqFEVP8NKkpCQwLx583jvvfeU+xNWB909EN9//32Dj8C7F1V1XdflOtVoNKhUKiXZVavVLFiwgNu3bzNr1qwKDyWoLLX1eyyEEKJqmcr9Kj1pFEIYptFoWLVqFdeuXWPUqFE4ODiwd+9eVq1axZw5c0p9ZKIQQghR1UzlflX+GEEhRCELCwuGDx+Oq6srzz33HN27dyc8PJyQkBC5NY0QQohar8puuSOEKKl+/fpMnTrV4FODhBBCiNpMWhqFEEIIIUSpJGkUQgghhBClkqRRCCGEEEKUSpJGIYQQQghRqmqZCGPirj5CCCGEEKIOqLSkURJDIYQQQoi6rjCfM5TXVShplERRCCGEEOL+UOakURJFIYQQQoj7j9lJo7nJoiSVQgghhBB1lLZk97RKpQLMTBpNJYLlSRIlsRRCCCGEqHm6hNAUXd5WStJoOLkzlvRJMiiEEEIIUXeYm9OpVCrjSaO5hRjaTpJHIYQQQoi6R1use1rXEqnVag0njeYkgkV/l8RRCCGEEOJecDdpVKlUevlciaSxtATQnP83Vo4QQgghhKjFDEyE0TE5ptHO2pLcvAJuZBXQwMGqRJNl0f8vvkySSCGEEEKIuiMtWw1aLXbWFmg0GlQqld5EGb2ksXhi16uNI7+dSOPzX67y2sAmBhNHjUaj93tp3dZCCCGEEKJ2uZlVwMJdiaDV0LO1k14DoC5xVGnvLDHUMnj8cjajV8STm69GbxutBmVmtbKb7vc7yaOhmdeSRAohhBBC1D53EkM7a0tWTfLCu6n93WTRnKQR4PilLL783zV+j7tFbl6+bq1+sqjVFiaJShlFyjKaJ0oCKYQQQghRc+52PdtZW9KjtSOT+zSmQ1P7u1sUSRxV2kJ6RRTvatY1URb90XVLq1QqrK2tsbKq0GOshRBCCCFELVbq7GljCaNWq8XCwoJ69epV28kKIYQQQoiaYWFshbFWRl3CqNFopHVRCCGEEOI+YWFqhrOuCxookThK0iiEEEIIcf/Qa2ks3rqo+/+irYtFE0dzHnIthBBCCCHqvlK7p4sv07UyFm2FFEIIIYQQ9zaDSaOpVkZJGsU9T+4nKoSoKyReiWqkJI2lPSKwaOKoVqtRq9XVfKpCVAOtVrnBqRBC1GoSr0Q1M2smi6HZ02q1mhtZBVV9fkJUHwnAQoi6QuKVqAEluqeLToIB9Ca/6H7UarV0TwshhBBC3EeMtjTqksXiv6vVauVfIWo9rbbwKUlFh/3I1bkQojaSeCVqObO7p3X/Fu2iFqLW0gVfXcBVFVsHEoyFELWDxCtRRxi95Q4YfoSgbrl0T4taTaVCP/IWXwf6l/O6RXIxJISoZhKvRB1hMmksTloZRe2nNRxItcWWq1QGY7CyranfhRCiUki8EnVLmZJGHUkcRa2lpVg3jq5rx9j2xQKzbl8laMsMRSFEFZF4JeoYg48RLL6s+CMEjW0rRK2i1XI3+hYJrjrGgqsuGJvqMhJCiMok8UrUAeVqaSx+Wx4h6gS5AhdC1BUSr0QtZLCl0VhCKImiuCfI51gIUVdIvBK1SJlbGiVxFHWKsc+rbgyQXM0LIWoLiVeilitX93RVOf7XMd6c+X9kZKQDhRNu9vy6i3HPjsS3YxuO/hlD4tUr/LBhLTdv3gDg6J8xPPPUUM6f/7tKzikvL495H89lz6+7Kr3s7f/dwofvv8vt27kl1mVkpPPmzP/j+F/H0GjU/LrrFyIjDtb5pN3U+1XWur6dm8NH77+Lb8c2+HZsg1+ntvh1asu0KZNIT0srEWAzMtJ56/UZHD/+Fxqthl9376yWOr19O5cP33+Xr5ctNfj7vfT+gv73OD0tjX9NmcT2/25R1qenpxP2n+U8+dhAfDu2Yepz4zkSFXFPvHYhjCo+I7rocjBzzKIQNavUpLG6uqq1Wi2Rh37n4e49cHZ2AeDvhHMsW7qI4KHD2LnnIO0e8iYjI4MfN37P9WvXKvX4xly9eoVr15Lo1Lmr2fuYSgbNlXAuHhsbGx70aoVareHE8b+IijhEQYH5z/s++mcM/9IlUHWA+XVdGHxzc3K5evUyb73zPivC1rB85XcsD1vDlBdfpp69feGmKpUSrGtrnZb3XGojQ9/jonJycvhy8ULOxp3hswWL2L0vgoDeffjw/Xc5dfJ4DZyxEFXNSLIIJRPBIvFKWhZFbWTWE2GqQ2pKCqdOnuCll/9PWXbrVgYWFhb49+xFo8aNAWj3UHs2bN5irJhKd/SPaFq1bkNDt4bVdkyNRk3Ewd/x7fYwDg4OALzy6uvVdvyaUnpd62YXqkAFefn55OXl0aZtO7r6+BXZrFiAVqmUOvUpWqczZtaKoGxtbX3PvL+GvsdFxced4c+YaD6et5BWrdsA8NQ/n+Fs3GkiDx3Eu0On6jxdIaqQfrwqXGQkGSy6zFhMkiRS1AK1pns64Vw8zs7OPNDUE4Cvly1l0thniDtziuGPDVBa7szpjk5PT2fpooUE93+U4P6PsmzpIrKyspT1Go2G/f/bw3PjRuHbsQ3jnh3Jzh3bSjxPOycnh9g//8CvW3csLCxL3VfXFRfy5mts3rienn6dlG45tVrNzh3b+OeTj/For4dZErqAmzdSDZ7/jdQbxJ+NU1rcindn6o7z46bvWbfmW+V1hv1nObdv5yrbTxr7DBEHD9C398PKvgDXkhL54L0QHu31ME8+NpDNP2wgLy9P71hrV4fx2UcfMPqfT3L+/N9s/+8W/jVlElERh3jtlX/h27EN06Y+x+mTJ/TOvWjZhuremOJ1ffrUSSaOeZpz8WeVbW7n5vLR+++y5tuVaLVasrKzsLa2pn59V/3CVCVvV3Ej9Qbn4s8W1qlWy+3buXw059/VUqelKf7+QmFX/eYfNvDkYwOVz8va1WElWrBNHff8+b955qmh7Nv7G0tCFyjbbNv6s95n/fbtXDZ9v55/PvkYvbv78Mar0zlz+pTeOZr7+op/j4uztLLkn8+MpskDTZVldnZ2uDVqLM+zF/cWczvjDMQr/XLkMYKi9qgVSWN+fj4H9u8l8JG+1KtXD4DR4yayZNk3tG7Tju82/Mgrr72OjY1tqWXpur+uXL7E0q/DWLL8G06eOE7Yf5Yrf5SiD0ex4LOPGTfxOX47EMW4ic/x1eIvOLBvr15Z5/8+R05ODg95eyvLTO3r5OzMx/MWEvLeXIY+MYJf9vzOP/oPAODXXb/w1eIveOHFaWzesgMvr1as++5bg6/hxPFjeHg0oVnzFiZfa9h/VmBjbcOqtT8w4/U32fT9eg4e2I+NjS2vvPY6S5Z9Q3f/AMK3/8rocRMBSE1N4dMP5+Dk6MT6jT/z3tyPCf9pM//d8pPekIMN69bQqHFjZr4ZQqNGha28sX/+yeaNG3jhxWmEb/+VRo0a8/XyL5UxqNevX+Od2W/QqFFjNm/ZwYLFX3HyxHFWh/0HjcZ0QlC8rps1b4Fns+Z6yUtiYiJxZ07h93B3VCoVOdlZJCYmsuSL+fTt9TCPDeh7N0nVjQG6c2V/4vgxPNw9aNasuRJ8DYXoqqxTc2m1Wn7duYOVXy/jX9NnGP28mHvcZUsX4d2hIxt/2sYzo8fy5aIvOHUn2Ver1axfs5o9v+3i3TkfEb5jNx07deGjOe9y8cL5Mh3H0Pe4OO8OnRjx9LPY64YPAFlZmVy8cJ627R4qc10JUacYSxCLxSulS1taF0UtUyuSxuvXr3Hl8mXatb+bnNnb22Pv4ICFhQUOjo44OjqhMuPLE30kirjTp/jXK6/SsuWDPOjVihdenMaRqAguXboIQOzRP3jYvyc9Anrh6tqAfkH9mfZ/r2Fpdbe3XqvVEnPkMB07dcbJyVlZbmpfCwsLnJ1dsLOrh7W1NS4uLtja2pGZeYvfdv/CuEnP84/+A2nY0I3Bjw1lwvMvlDj/vLw8DkdG4Pdwd2xsbEy+1qefHc1T/3yGRo0b80jff9Cv/wDOxZ9FpVLh6OiEvYMDllaWODu7KH+kf925A5WFBZNemEqTB5rSpasvE56bzJ5fd+mN03v62dFMeO4FfHz9lO5cr1ateeW1N2j3UHuaNW/BP58dTUrydW7cKJyU9Pe5czRt6smzo8fRsKEb7R5qz4BBgzn+Vyy3Mm4ZfR2G6trBwYGuPn78GROttKxd+DsBdw8PvWS6fv369OwVyJcrVvLKa2/wvz2/6l0goFKRl5/P4cgIfB/ujo2t6QuPqqxTc6WnpbF92xaem/Kiyc+LucedPPVf9AsaQKPGjQl+fBgdOnVSEsJLly6y97fdvPTyDDp26kzDhm48PWo0bdu1Vy6izD2Ooe9xabRaLb/u+gVLS0t8/LqVua6EqLMMXVAWvUm3TH4RtVCtSBrPnDpJU09PGjd2r3BZp0+eoO1D7Wnk1khZ5u7ugY2tLWl3Zlx36erLkagINm/8nuTr1wEVQQMGEdjnUWWfW7cyOP7XMaVVS8ecfYtLSUnhyuXLtGnTTilLpVLh4OBYYtvk5OskJSXS3rtDqa+1QUM3pTxra2uDEw+Kun07l/izZ+nQsZPets2at+B2bi5p6XcTgKJl6zg5O+FY5Jzr2Tvg4Hj3d/+eAfz7g49xqV9fWabr1jfl1q0MThz/q7CuQbnC7tzVhyuXL5GSkkJ+fj4x0Yfp3NUXR0cnANp7d2Tldxt46p/P0N67I/0HDOLl/3uN3/f/T7lAgNpTp+ZKS0/j5o0bJj8vZXsv744RLbyYududn5R4FXt7B5p63u1OtrW14+1/z2H0uIllOk55vsd/xBzhh/VrGTyWegYAACAASURBVDV2fKl1LUStU3TSirm9CpIIijqsxifC5OTkcGDfXgYHD8Xa2rpCZRUUFJCVlcXGDWvZuGFtifXXryUB8LB/D96Z8yFrV6/iy0Vf8EDTpoweO4HBjw1VWvdOnzxJvXr1aPlgK70yzNnXEJf69XFyKf2P4pGoCFq3aYu7h0dZXrpZCvILuHUrg82h61kSOl9vnb29I7fS02nSpEm5y9doNMREH2b9mtUcjowgOzsTgJ69Ak3ud/rkSerZ2RXWdZHuG0/PZjR2dyc+7gw21jYknItncPDjJstq2qw5KpWq8AKh5YNA3avTgvx8HBwdTX5ezDmuOZ+3G6mpWFhaYKEyfP1oznGgfN/jvxPOsWjBPMZPmkyXrr5m7SNErWLOeESTSWLRRwcKUfvVeNJ49cplMjIy8GrVusJlWVlZ4eDgwITnXmD8xMkl1tvVswMKW238unXHr1t38vPzOfpHNIu/WEBubg5PjxqLRqMmJvowXXx8S4zNKm1fY7IyM8nJNj0hRDcZZHDwULNa6MrKytoKJydn3nrnfQYMHFJivb2DQ6ljD02JPhzF0kULmPbKq3w6PxRra2uO/hmjN8GjOF1dd/bxpd6d9wcAlYp69vXo6utH9JEoLC2tcHBwLOya1mrRUjgWzkJlUdhNrBsPVExdrFMra2tu5+aa/LyYc9wrVy6XeqwGDRuiUWvQaDXlPg6U/Xv8d8I53gt5k2dGj2PQkMfMGnoiRK2gTExR/nMnMSw2BrHoGMXiyaWyDskZRZ1S493TR/+Iob13Bxq6uVVKea1atyH+7FkKCvJxqV8fl/r1cXZxQWWhwsbGlpycHEIXzFNmNVtbW/Owf08CH3mU+LNnuX07l9SUVM7Fn6Wrr/4YK3P21dFo1MokATc3N9w9PDh18oTeoxqzsjL1yr986SJZWZmVOiGgaEJgY2NLi5YtOX3qJDa2tkr9ODo5YWllWeGW3tijf9C2XXs6d/VRysrKzCyxXdEEITUllYT4s3dumVM8eqro1KkLly5c4Ned2+neIwBH3fhSrZYNa7/j6+VfotZodAVzPTERS0tL6rs2AOpmnZrzeams43o0eYDs7CyuXL6bYObl5bH8y8Vs+flHs49Tlu9xamoKixd+Tt9/9GfAoCGSMIo6qmS8AvQvXosmi7rksbRb6whRi9Vo0piRkc6Rw5H0COhdaX84fPy6YW1tzfzPPub8+b9JTU1hy0+beXPm/5F49Sp2dnY0a96c1WH/4dDv+0lPS+NIVAQH9v2PDp06YWtrx1/HjuLu7sEDRW4LApi1LxRO4jhx/C/+TjjHrVsZODo68Y/+g1i98j/8tnsnydevs+Wnzaz6zwqlbK1WS1TEQTp38dEbE1gRtra2JCUlcurEcdLT0lCpVPR5tB9nz5xh+dJFJN65mfZ3q77hw/ffJf1OV2N5tWrdhkO/72fvb79y5cplfv5xI59/+pGBLe8G1b+OHaWxUtclWwof8GxGfVdXYv/8g85dfQoXqlSoLCwI6B3Ivr2/8dOmH0hNTeH4X8f4NuxregT0plmz5nW2Ts35vFTWcZs1a07ff/Tny8ULOf7XMVJTU/hp8w8c+n0/nTp3Mes4Zfke5+TksOKrJdg7ODBoyGNk3rpFeloa6WlpZGSky213RO2nfMaNTGQxtMzQpBZ5ApKog2o0abx44QIWFha0fPDBSivT1bUB7875iKaezfjX5IkMG9yfmOjDvPr6mzzQtCkqlYphT45g4vNTWLZ0MX17P8ziLxbw1MinGfLYMPLy8og5cpjuPXqWGKNY2r46XX388O7QkdH/fJKIgwcACBowiBdf/j9WfLWEkU8Gc+nSRUaNHa/sY2ziTUV4tWrNgEFDeOPVV9i8cQMAzVu0ZN7CRdzKvMWzI5/g6eGPk5yczP+99gYuZoyBM6V3n0eZNHkqy79czOh/PsnlS5eYPmMmN1JTCx/7qAuSWkCrLVnXBmJovXqFXdSdunQtce+/9t4d+ejT+RyOiuCJwf15963X6d2nL5OnvoSlpWWdrtOgAYMYO+E5li5aaPDzUlnHtbS05Nkx4wjs05d33nqdYYP7c+KvY7zz/lwe9Gpl1nHK8j2+di2J2D//YPt/wxnS/xH69n5Y+Xlh4li9CUxC1KjSJrmYyvlkUoy4R6k0Go0WClu6NHe6+TQajfJ7QUGB8m9BQQH5+fnk33kSRyPPViYLN0Wr1fLNiq9wdW3AU/98pnJeTSU4f/5vlnwxn1mz31WeQlMdjv4Zw48bv2fW2/9WbnFzT9NqOX/+b5aGLuANXV2buomtyQHlurFB+uvrcp1qNBpUKpWS7Go0ar5c9AW3824zfcbrFR5KUFlq6/dYiEplKDZVcrwSoi6osaRR3GdKBFFDgbMcwfQevPmtRqNh/ZpvSb5+naf++Qz2Dg78vu9/rF+7mjdD/q3/yEQhROWTeCWEQZI0ipphaLB40eX3eWBNT0/nx40b2PLzj1w4n0B3/wCee2Eq3br3kIkjQlQ3iVdCAJI0iqpQarcN6M00NDRAXIKwEKI6SLwSwmw1fssdcR8pHoCLLi9KArAQoqZJvBKiBEkaReUz9ZQEucuEEKI2kXglhNkkaRQVY+x2FOZcfRe/2a0QQlQliVdCVIgkjcKwyrrPWGlPRxBCiIqSeCVEtZCkUZhQhr4ZU1fvxQOxXK0LISqdxCshqpokjcK4onFVqy1cYOgJCRJQhRA1TeKVEFVOkkZhWPGrbpUKKOWK21gXkQRpIURVknglRLWQpFEYp4udxm4xYWz8j+5fGQckhKguEq+EqHKSNAoTTATQ0gKxjAMSQlQriVdCVDWriuzcwKFCu4vaxtiVtqkrcLk6F0LUBIlXQlQ7aWkUhUoLpqZuaWHu7S6EEKIySLwSokZI0ihKD6Kmnpgg3TpCiOok8UqIGiNJoygkgVQIUVdIvBKiRkjSeL8x9hit0pi6ehdCiKog8UqIWkWSRlHInOAqXTtCiNpA4pUQNUKSxvuBoQBr6p5lpe0rhBBVReKVELWWJI33OkM3ujV31qHcnkIIUZ0kXglRq0nSeD8wdc8yQ9vI0xGEEDVF4pUQtZbcnft+pVKVDLYSdIUQtZHEKyFqBWlpvFfoAqqM8xFC1HYSr4Sok2pV0hgbG8v06dNJT0+vUDnh4eFMmDCBmzdvlmv/nTt3MmfOHPLy8ip0HsUlJCQwfvx4EhISSqzLy8tjzpw57Ny5s0xlZmdns3nzZr5ZudLkAPH09HSmT59ObGxsyUIMbB8TE0NwcLDBc60KixcvZvHixdVyLJ2srCxCQ0MJDAys0OdFR61Ws2PHDn7//Xe0ZfjDp9Vq+eOPPxgzZgxeXl6Eh4dX6DyEqPWKjlUsa5IoSaUQNabWJI1arZYDBw7Qo0cPXFxcauw8cnNzOXDgAP369cPGxsasfcLDwwkJCSE3N7fcx718+TKJiYl07drVrO0zMzP57rvvGDZ0KG+88QbZ2dmFK4oH4ju/x589i62NDa1bt9Zffx/btm0b+/bt47PPPmPBggU4OztXqDyNRsOxY8c4ePAgBQUFZu+XnJzMwoUL8fHx4dChQ/Tt27dC5yFErWSoZdFIvCqxncQrIWqFWjOmMTk5mRMnTvDqq6/W6HlcunSJ1NRU2rZtW63HjY6Opm3btri5uZm1fVhYGMdiY3nzrbdKtk7qxv/codZo2H/gAA93746DvX3JQeP3aUC+du0a3t7e+Pj4YGdnV+HyrK2tmTVrVpn3y8zM5MaNGzz66KN4eHhU+DyEqFOKxSu98YtFl+ncp/FKiNqg1rQ0xsfH4+zsTNOmTYHCrtzg4GBiYmKUbXJzcwkJCVG6727evMmECRP46aefePnll412MWo0Gn777TeefvppvLy8GD58OFu3bkWtVpfY9s8//6Rt27Y0bNgQKGwB/fPPP3n++efx8vIiKCiIVatWkZubqxx/xowZrFu3Dm9vb72uxZMnT/Liiy/i5eXFiy++yPHjxw2+9uzsbGJiYvD398fS0pITJ04wcuRIzp49W+K1f/PNN2i1WiZMmMCKFSvoFRBgvEX0TnBNTU3lbFwcPj4+SreQWq1m586dPPP007Rq1YqxY8YQERFhsls1LS2N+fPnExgYiK+vL7NnzyYxMVFZb857plsWFhZGYGAggYGBhIWF3W0pNYM572dubi6rVq0iKCiITp06MW3aNM6dOwfc/dwsXLiwxPum1WqJiIhQuorHjBnDH3/8YVZ3s+616rrZdcfZsGGD3utdtmyZ0iodHh5OUFAQp06dYuTIkXqfYbVazdatWxk+fLhyLqW9R0LUWcWTxKI/QohaoVYkjfn5+ezZs4d+/fphb29f5v1XrlxJz549eeWVV3BwcCixPjIykg8//JDJkycTHR3N5MmTWbhwIXv27NHb7tatWxw8eJB+/fphaWkJFCazs2fPJigoiOjoaD744AO2bNnC+vXrcXZ2JjQ0lI8++ogRI0Zw6NAhBg4cCMD58+cJCQmhdevWHDp0iKlTp7J582ZSUlJKnF9CQgI5OTl06NABgJYtW9K8eXNOnjxZuIFWy9WrVzl96hT+/v6oVCqcnJxQWZh4+4oE2mPHjuHRpAktWrS4U5yWbdu2sWTJEl586SWOHDnCUyNGMHfuXP744w+DxaWnpxMSEsLFixf59ttv2bp1K05OTrz33nsGX5MxarWa1atXs3XrVj777DN++uknCgoKWLNmjdlllPZ+qtVqlixZwoEDB1i2bBm7d+/mwQcf5L333uP69eu4uLgQGhrKSy+9VOJ9O3z4MHPnzmXEiBEcPnyYxx57jLfffpszZ86YfX7FLVu2DBsbGzZt2sTs2bNZu3Yt+/btA2DgwIH8/PPPtGvXjrCwMEJDQ3FxcUGr1bJ69WqWLVvGK6+8QnR0NCPuvEeHDx8u97kIUeWMTXIxNYbR3MRQLpiEqFG1ons6KSmJy5cvM378+HLtP23aNOWPviExMTEEBATQu3dv7OzsGDBgAABWVvovPyEhAa1WS8uWLZVlJ0+exN3dnYEDB+Lq6krPnj2ZOXMmqampaDQaXFxcqFevHjY2NtSvX1/p5tyzZw9eXl5MmTIFR0dHPDw8eOONN5g7d67eMbVaLVFRUXTp0kUZU+fg4ICfnx9Hjhxh4MCB2NnZkZCQgIeHBy2aNy/x+kyF27zbtzl06BD+/v5Ki2RaWho///QT06ZN45E+fUClYtiwYVy+fJkdO3bQuXPnEuVERkZy8+ZN5s+fr3ShvvTSS7z55pts2bKFSZMmmTiLu5KSkti9ezczZsygZ8+eAEyaNIkbN26YtT+U/n4mJydz9epVXn75ZWUM5xNPPMGvv/7KpUuXaNy4MS4uLtja2uq9b5mZmaxdu5bhw4czbNgwVCoVw4cPJy4ujl9//ZV27dqhKkerx9ixYxk1ahQqlYqgoCBiYmKIi4tT3ltHR0csLCxwdHRUxvNeunSJ7du38+abbxIYGAjAsGHDSE1NZfXq1Xh7e+Pk5FTmcxGiShUd+lKe+yea2r74uEchRLWrFS2NJ0+exNPTs9zjuUobB+jn58ehQ4dYv349165dQ6VSMXjwYL0JB1qtlujoaLp27ao3Ecfb25tr166xatUqLl68iFqtJiAggMcffxxra2uDx8vNzSUhIYFWrVrh6OioLNcll0VlZGQQGxurtCDq+Pr6cvHCBZKTk8nPzycyMhJfP7/CRMHYWJ/iVCquXb9OUlISHTt2VBZfu3aN7OzswoTqzv4qlYpp06YREhJS4nVptVpOnz5N+/btlW57ABcXFx5++GESEhLMngSUlJTE7du3aV4k+bW0tCxTC3Np76eHhwcLFizQm1SkUqmwMNUyC1y/fp3z58/j6+urvBc2dyYP6c67PNzc3JTyrK2tzZropev29/Ly0nsN/v7+JCUlkZycXK5zEaLKFE/4DLUsltbaaCieFU0+JWEUokbVeNKYnZ2tdE0bS8IqqmfPnnz88cdERUURFBREcHAwGzdu1LulTnJyMtHR0Uqrjk6bNm344osvSExM5IknnuDRRx9l+fLlZGVllXrcBx54oNRtTpw4Qb169fSSA4DmzZvj0aQJZ86c4caNG5yLj6d79+4Gy9CC0W6biIgI2rRpo5eQZ2VlkZmVZXar2e3bt0lOTsbFxaXEe1Q0iTRXgwYNKjRT2Zz38/Lly8ydO5fAwEBlLOqpU6dMlqsbp/rUU0/h5eWl/ISEhJCYmFjupLE8EhMTcXBwKJFM29vb612ICFFrmJvQlTXxk2RRiFqjxrunr1y5QkZGxt1bwVQBXQuNv78/+fn5REdHM2/ePHJychg3bhxQciJOUe3ateOzzz5DrVZz5swZ5s+fT1paGq+++qrJRDc1NdXkeanVaqKiovDz8ytMDopcqdvb29OtWzciIyOxsrLC0dGxcEyioScjFL7IEst0E2yGDRumjNGEwu5vBwcHsydU2Nra0qhRI3Jzc1Gr1XplXb161awyisrKyiI7OxtXV9cy7wulv5/Xr1/n7bffJigoiP/+97+4uLhw8+ZNZsyYYbJcOzs7mjdvzqJFi/SGKABYWFhUa3dwkyZNyMvLK3Gv0PT09ArfT1KISlFaV7Iu2TPWTS2P/hOizqnxlsYjR47QoUMHGjVqpLfcwcEBFxcXcnJylGX5+flmtfAVlZ2dzaeffqrMjrW2tqZnz5707duXuLg4JRE6ePAgAQEBei07Go2G//znPyxfvlxJlry9vRk6dCinTp0iMzNT2VatVitJmJ2dHV5eXpw8eVJvm5ycHL0kICUlhbi4OLp163b3hIskcj4+Plw4f57t27bRMyCg9KSlWAC+ePEimZmZtG/fXm+5u7s79vb2xMfHFzmslnXr1vHll1+WuMegSqXioYce4ujRo3rdounp6Rw7dgwvLy/s7OzMes90LZ5FbxquVqvNnj1tzvt56dIlUlJS6NWrl9IVfPv2bb3zMqRhw4Y4Oztz4cIF6tevj6urK66urtja2mJra1tq93ZlatKkCfn5+cTFxSnLdDcBb9asWYnvixA1wtgTXUpLBqX1UIg6qUaTxvT0dCIjIwkMDCzRVerq6spDDz1EWFgY8fHxXLhwgdDQ0DI/LaNevXq0aNGCFStWsG/fPm7evElERAR79+6lc+fO2NnZcfXqVc6dO4evr6/evhYWFrRr147vv/+erVu3cuPGDU6ePMmWLVtKTFw5duwY586dIyMjA4B+/fqRkJDA8uXLSUpK4vDhw3z22WfKeoCjR4/SpEkTPD09CxcUq4OmTZvSoEEDYmJiSpwbYHImoVar5eDBg/j6+lK/fn29dfXr1+fJJ59kyZIl7Nu3jxs3bvDLL7+wdu1a/Pz8SkwQAujRoweurq58/PHHJCQkcOXKFb788kuys7MJDg4GzHvPPDw86N+/PwsXLiQiIoKkpCS+/vprs2dPm/N+Nm7cGFtbWzZv3syFCxc4dOgQISEhHDlyxGTZLi4uDBkyhEWLFhEeHs6NGzc4ffo0b731Fhs2bECj0Zh1jpXB09OTIUOG8MknnyjvUXh4OOvXr+fZZ5+VSTCi5hkbf2iMzHwWos6r0e7p8+fPo1KpSozng8IJCLpbqTz55JN4enoyceJERowYUaZjqFQqRo4ciYODA6GhoRw9epSuXbvy7LPPMmzYMMD0RJzevXvz4YcfsnTpUl599VW8vLwYOXIkY8aMUbpp/fz86NSpE8OGDSM0NJTHHnuMli1bMnfuXBYvXkxAQAADBw7kqaeeYvPmzUDhrOaoqCgCDN1n8c6Vur29PX7duqFWq2nWrFnxF2bydesm2LzwwgslEnKVSkVwcDAqlUqpk379+vHuu+8aHTfp4uLC3Llz+eabbxg/fjxZWVkMGjSITz75BHd3d8C898zS0pJx48ZhbW3NG2+8ARTOnh4zZozJ11P03Et7Pz09PQkJCWHBggV89dVXDBw4kAkTJqBWq7lw4QJ+fn5Gy3/sscdwc3NT3u927doxZswYnnrqqWptaVSpVIwbNw43NzfldQYEBPDBBx/Qo0ePajsPIQDzuqKh5I26daRVUYh7gkqj0dyZR6FVWlI0Go3ye0FBgfJvQUEB+fn55Ofnk5eXR7t27cp9YK1Wy9KlS2nQoAGjRo2qnFdTDrm5ucydO5dBgwbRu3fvihVWhjE6CefO8fnnn/Pv995Tki6j5Ri735kJMTExrF+/nvfff9/gvStrK93Yw/3795dY1759exYvXmzwIqM6JCQk8PLLLxucUNOnTx8WLlxY7nGaQlS7sowpNHW7m0qIV0KIuqHGksZ7UlnvI2YsaN/H9yPTaDTcunXLYFew7l6GRSfiVCe1Wk1mZqbRc3NycqrW1kghKkTilRCijGp89vQ9r7SrbplBqMfCwsKs+xjWBEtLy1p7bkJUColXQggTpFmkMhm7mW3RmYLm3uhWCCGqksQrIUQZSdJYVcoaWHXbS1ePEKK6SbwSQphBksbKVspj/QDjjwGUR2UJIaqTxCshRBlI0lgZjI0DMvfWE8W7hIQQoqpIvBJClJMkjRVV3oHhMi5ICFHdJF4JISpAksaKMBWAy3r1LoQQVUnilRCigiRprA4SiAtptdJiIURtJ/GqkMQrIUqQpNFc5Qke92OgFULUPIlXQogqIEmjOYrfXsLQOmMkEBcq2jUmV+9CVB2JVxUn8UoIgyRpNKWygoUE4rt1IHUhRNWQeFV5JF4JYZAkjcYUvdIs6xMS5Mq0dFJHQlQeiVdVS+pICECSRsOMBYjSArHu5369OjU3sEq3jxCVR+JV+Ui8EqLMrGr6BO4J92vQLaroOCpz6kOlkiAsRE2QeCXxSohyur9bGotebRdlThCRAHJXRZ4/K/UohHkkXlUOiVdClNv9mzQWv8I0d6ahXKWXVPyRYmXt9hFCmCbxqvJIvBKi3O6/pLH4lbqxQeNFtzf2+/121WnOzW7LM/7nfqtHIcwl8ar8JF4JUenuv6RRp/hVo6nfiw8av9+vOCvzXm9Sn0KUTuJV+Um8EqLS3L9JozHGruolWJSdXJELUbUkXlUeiVdClOreThpNDRovy/ifsi6/H8iTJYSoXBKvqo7EKyEqxb2ZNBafHWcsYJR1ubnr72Wljakq7n6uKyHMIfGq6ki8EqJS3ZtJY1GmbnBrbHtj6+/lcUJVESzvtToSoqpJvDKPxCshakStShpjY2OZPn066enpAGg0Gnbu3Mnw4cPx8vIiJiaGK1eusGbNGm7cuAFATEwMjwUHk5CQcLcgY4PEzXmkVjF5eXnMmTOHnTt3VnrwDQ8PJyQkhNzc3BLr0tPTmT59OrGxsajVanbs2MHvv/+OtiqvhMtSdvEnS5S23R0xMTEEF3+/7tCrazPk5uaydu1a5fMxfPhwtm7dilqtNrh90TrNzc0lJCSE8PBws45VEadOneKHH34gOzu7yo8l6qBKjFclyrmXE6FqiFdCCH21JmnUarUcOHCAHj164OLiAsC5c+f44osvePLJJ4mIiKB9+/akp6ezfv16kpKSzCm0YjdyBS5fvkxiYiJdu3Y1ex9TyaC54uPjsbGxoXXr1mg0Go4dO8bBgwcpKCgwu4yYmBgmTJjAzZs3y30eRlVB8lqWular1axatYpdu3bx5ptvEh0dzbhx41i4cCF79uwxuE/ROq1OSUlJhIeHk5aWVq3HFbWUqW7mCsYrYYR0OwtRPsW+O7XmMYLJycmcOHGCV199VVmWkZGBhYUFvXr1wt3dHQBvb2+2bdtWeoHGgm/Rm+SaEZijo6Np27Ytbm5uZr2OyqBWq9m/fz/du3fHwcEBgFmzZlXtQXWPySrLY7WgUoNxWer68uXL7Nq1i5kzZ9K9e3cAHn/8cc6ePcuBAwfo06cPtra2yvbF67QiCX1Z9e3bl759+1bb8UQdYOxm3RWMV/eNWhCvhLhvFPme1ZqWxvj4eJydnWnatCkAixcvZuTIkZw6dYqgoCCl5c5gd3QxaWlpzF+wgD59+tCnTx9CQ0PJyspS1ms0Gn777TeefvppWrVqZbRbMzs7m5iYGPz9/bG0tCyxb/Eu0Zs3bzJhwgRmzJjBunXr8Pb2Vro/1Wo1W7duZfDgwfj6+vL555+Tmppq8PxTU1OJi4vDx8cHQOlKXbx4MYBynA0bNhAWFkZgYCCBgYEsW7aM3NxcZfuRI0eyf/9+unXrpuwLkJiYyOzZs/Hz86N///6sW7eOvLw8UKmUfVeuXMn777/P0KFDSUhIIDw8nIkTJ3Lw4EFeevFFWrVqxaRJkzh+4oTeuevK9vX1JTAwsETdG1O8rk+cOMHIkSM5e/asso3u3L755htUKhVDhw6lTZs2ynpLS0s8PDzQaDQluvGL16lORkYGoaGhSh2GhYXpJZS6903XBT5mzBj++OMPvfKzsrJYvnw5gYGBdOrUiWnTpnHy5EllfXh4eIkW3zNnzjBz5kw6depEUFAQq1atqtZEVlQjeeJI1TDnJufleeSiEPezUuJVrUga8/Pz2bNnD/369cPe3h6A5557jrCwMNq1a8fPP//MrFmz9FqOSrjzQrOzs1mwYAGXLl5k1apVrFy5kr+OHeOrr75CrdGASkVkZCQfffQRkydP5siRI0yePNlgt2ZCQgI5OTl06NBBWRYZGcmHH37I5MmTiY6O1tvXxcWF0NBQPvroI0aMGMGhQ4cYOHAgANu3b2fhwoVMnz6dXbt20bp1a8LCwgy+lGPHjtGkSRNatGhhst6WLVuGjY0NmzZtYvbs2axdu5Z9+/Zha2vLrFmzCAsLo1dAAHv27OG5SZNAqyUlOZn3338fJycntmzZwqeffsqmTZv48ccfCxMhlQoV8N3q1bi7u/Puu+8qrbwxMTFsWL+eaS+/zJ49e2jUqBFfLl1KekYGUNgNO3PmTNzd3dm1axfLly/n2LFjrFixwug4Q2N13bJlS5o3b66XfF29epVTu8tdegAAEDVJREFUp07h7+9P8+bNmTBhAo0aNVLW5+Xl8ffff+Pl5YWdnZ1ZdbpixQoeeOABNm3axHvvvcemTZtYv349Wq0WrVbLxo0bCQsLIyQkhMOHDzNw4EDefvtt4uPjgcKkcsWKFRw+fJiwsDB2797Ngw8+yL///W8uX75s8LXGx8cze/Zs2rVrx969e5k/fz579+5l9erVpdaTqGMMJS+mJq4U/f97fUyiKcaes12cqdsLGau/+7VOhSiNGfGqViSNSUlJXL58GW9vb2WZvb09jo6OWFpY4OjoiJOTEypDTz3QubMuKiqK06dP89rMmXh5edG6VStefvllIiMiuHDhAlCY/PTs2ZPevXvToEEDBgwYwOuvv46VlVWR4rVERUXRpUsXnJ2dleUxMTEEBAQY3NfCwgIXFxfq1auHjY0N9evXx87Ojlu3bvHLL7/wwgsvMGjQINzc3Bg2bBhTp04tURd5eXkcOnQIf39/bGxsTNbb2LFjGTVqFO7u7gQFBTFw4EDi4uJQqVQ4OTnh6OiIlZUVzs7O2N/p5t6+YwcWKhUvvfQSTZs2xdfXlylTprBz5069MXdjxo5lypQpdOvWTekib92mDW/MmoW3tzctWrRg7NixXLt+XWkxPXfuHJ6enowbNw43Nze8vb0JDg4mNjaWjDuJpSGG6trBwQE/Pz+OHDmitMAlJCTg4eFhNJmOiori1KlTDBgwwOw6nTBhAiNGjMDd3Z1//OMfjB8/nv3795OWlkZ2djZxcXG88MIL+Pr64ubmRnBwMG5ubkoym5GRQWxsLEOHDqV169Z4eHgwadIkHn/8cYPjT7VaLb/88gtdunRh/PjxuLm50aVLF6ZPn87u3bvNG6sr6g5zn3FcfKLG/Z7YlPXZ0NLtLETFmfG9qxVJ48mTJ/H09MTDw8PwBqZubFts3fHjx3nooYdo3Lixso1HkybY2toq3YN+fn4cOnSI9evXc+3aNVQqFYMHD9Ybd6ZLBvz9/fWSVXP2LS45OZlLly7Rrl07pSyVSoWjo2OJba9du0ZiYiIdO3Y0Wp6Om5ubUp61tbUygciY3Nu3iYuLo1PnznrbtmjRgtzcXKV+tIBbw4b6STrg7Oysd866xF6nV69efPrpp7i6uirLdN36phira19fXy5cuEBycjL5+flERkbi5+eHk5NTiTLi4+P54osvGDVqFJ6ennrrTNVp0ToE6Ny5s1IXDg4OvPvuuwwaNEhZr1Kp9F6Ts7MzXbp04fvvv+d///sft27dwtXVlXHjxtGyZcsSx8vOzubvv/+mY8eOegmsn58fGzduVIZniDqqtNYxcxLH+zVhLG9X8v1aX0JUVDniVY0njdnZ2UrXtLW1tfENzXgiQkF+PllZWaxZs4b27dvTqlUrvFq1IiAggIjISBITEwHo2bMnH3/8MVFRUQQFBREcHMzGjRsLx/XdceLECerVq4eXl5feMczZ1xBXV9dSkzqAiIgI2rZtazyBroCCggJuZWTw+bx5hXXj5YWXlxdDhgzh+PHjyq2OgLsDzctAo9EQERHB1KlT6dSpE15eXsyYMaPU/YzVdfPmzWnSpAlnzpzhxo0bxMfHK5NeikpJSWHevHn079+fIUOGlFhfljq1sbEhIyNDSaBv3LjBsmXLCAoKwsvLCz8/P/bv369sb2lpyYsvvkhwcDCLFi2iS5cuPP/88/z5558Gb4+Ul5dHamqqWcm0qIOMjbMz1FValqe83A8q+iQbaW0UomzKEa9qfPb0lStXyMjIMH4blNLG9RR50VZWVjg4ODB16lQmT55cYtN69erd2UWFv78//v7+5OfnEx0dzbx588jJyWHcuHGo1WqioqLw8/NTxljePZzpfY3JzMws9T59uskgw4YNq7SkouhHQddVPeeDDwwmV46OjiXH1JWhqywyMpL58+czc+ZMFi9ejLW1NTExMXqTcIozVdf29vZ069aNyMhIrKyscHR0LNE1nZKSwttvv42Pjw+TJ08uUW9lrdO8vDwcHR2pX78+2dnZfPLJJ7i7u7N+/Xrc3Ny4ffs2c+fO1dvHzs6O0aNHM3r0aNLT09myZQuvvfYaS5Ys0RtyAYVJacOGDWXs4r3M1AVXOS7G7nvmxCCpVyHKp4zxqsZbGo8cOUKHDh30JjQUpbTWFD95I10Zbdu25cyZMxQUFODq6oqrqyv169fHwsICW1tbsrOz+fTTT5VZzdbW1vTs2ZO+ffsSFxdHbm4uKSkpxMXF0a1bN71DmLOvjlqtVs69UaNGeHh4cPz4cWWZVqslMzNTr/yLFy+SmZlJ+/bty1CDRurDwHnY2trS8sEHOXHiBLY2NrjWr4+rqyvOzs5YWVmVbOkt40D8mJgY2rdvj4+Pj1LWrVu3TO5jrK51fHx8OH/+PNu2bSMgIECvazo7O5tFixbh7u7+/+3dTUgU/x8H8PfMrmJWKBsFUdkDUhAUYXQpgqKDQmK/X9Yh6YEOSR4KgpCIDklRhw7iihFGkF0C89ghiAgPkR0ENYuIWoQwW/Ch7KLuzuz/4H/m993vzs7OuLvujPt+wbLsOjvqWG8+833E+fPnLYvCTNd0cnIyqUVwZGQE5eXlCIVC+PXrFz59+oQjR45g/fr1UBQFsf+3ZhsikQiuXbtmToypqKhAfX09qqqqkmZ+G8rLy7F9+3aMjo4mtU6Pjo6itbWVYxpXCnlJGKc7vBQLpxNd5OPt8LoSLY2LvCpo0fjnzx8MDAzg8OHDKePnLIm/jHi8MBbowIEDKC0txd27dxGJRDA5OYm+vj5cvXoV4+PjWLVqFbZu3Yru7m709/djZmYG79+/x9u3b7F3716UlZVhaGgIGzduTBkb5+SzwOIkjpGREXz//h2zs7NYu3Yt6urq0N3djVevXiEajaKvrw+PHj0yz51IJPDu3TvU1NSgsrLS+UW0uh5CkTgxMYGPHz9iZmYGiqLg2LFj+PLlCzrCYYyPj+PXxAQeP36MW7duZb349M6dO9Hf34/Xr1/jx48f6O3tTWmVk6W71oZNmzYhFAphcHAQNTU15vuapuHZs2eIRCI4d+4c5ufnMTMzYz5isZija/r06VP09fUhGo3izZs36OnpQW1tLSorK7Fu3TpUVVWht7cXX79+xfDwMNra2pJ2kdmwYQMCgQA6OzvNf28vX75ENBpNaWUEFluq6+rqMDw8jJ6eHkxOTuLz589ob2/Hjh070t48kQ/ZLQlTrDOjxbxysnaiPAuarYlE+eEwrwraPT02NgZFUVLGstmy+MXElqJQKIT79+/jyZMnuHDhAn7//o3a2lrcvHnTLExOnz6N1atXo6OjA0NDQ9i3bx/OnDmDEydOYGFhAR8+fMDBgwdTZtoqimL7WcP+/fuxZ88eNDQ0IBwOo76+3uwODofDiEajaGpqwsWLF831Jo3JIM3NzY4KaPMIm2Orq6tx/PhxXLlyBS0tLWhpacG2bdvQ1dWFzs5ONDQ0AAD++fdf3LhxA5WVlVmtFXj06FFMTU2ho6MD09PTaGpqQmtrKzo7OzE9PZ00QQaA7bU2GF3UmqZhy5Yt5vuzs7MYGBhIWtZI9OLFC1RXV2e8ps3Nzfj58ydOnToFALh8+TJOnjwJRVFQUVGB69evo729HY2Njdi9ezcuXbqEsrIyjI2NIZFIYM2aNebakca/t0OHDuHevXtph1xUV1fjzp07ePjwIcLhMDZv3oyzZ8+isbGRYx1XGnab/seqm9nN9eG1JMovB//HFF3XE8Bi4aXrOgCYiyPruo54PG4+x+NxxGIxxGIxLCwsYNeuXUv+2RKJBLq6uhAKhdDU1LTk8+RaJBLBgwcPcPv2bXN9wuUwODiI58+fo62tzVziZsncLNlRwOU98n2tc3pNiSg/fJJXRFTAopFcykewcp9bIsoH5hXRilTw2dPkgLxKu11ouum+YfgSUa4xr4hWLBaNXmYzycVWppBm+BJRrjGviFa8gi+5Qxm4CcxsA5qIKBvMK6IVjUWj13G2IBH5BfOKaEVj97RX2HXDyEFsN1aId+ZElG/MK6KixJZGLxAHjssrscuLmGda6NbNLgtERG4xr4iKFovGQpJ3R7DbPFxmdaywMw4RUU4xr4iKHotGP+CyFETkF8wrohUrqWjMtH2do/2hKTvcY5WI/IJ5RVRUltzSyALSBWPczlKD1SqYjYHo/DsQUS4xr4gojYxFo1EcskjMgt1it1bBbDf+xwhz/j2IKB+YV0SUxpKW3GEB6YC8zISiZN+Fw+tORPnAvCIiB1x3T7NgdMiqKybda7u7dyKifGNeEZEDjopGqy5qFo85ki6IObCciLyGeUVU1JY0EYYFo8DNoPF0x6QbE8TrTES5xLwioiykLRoVRTEfxmv5OcG7y8w7Hrg5T7bnICKyw7wioixYFo3puqHlwvHv37/5/Nm8Ld0uCJlC1O5unHfrRJQPzCsiygHHYxrFglFRFKiqiqmpKei6ntcf0LPchiXvyImoUJhXRJQDZtEoF4VWxC5rRVEwNzeHb9++YXp6uniLRzd4V05EfsG8IiKBrutQdF1PiG8AQCKRgK7r5rOmadA0DfF4HJqmIRaLIR6PY35+HnNzc+bzwsKC+TVN05BIJMyHlRU3JtJuEVsucEtEXsK8IipqThoIA4EAgsEgSkpKUFpamry4tzi5RZ7oYnRJ67oOVVXN18FgELqumwWn8U2M94xz2BWPvuAkRBm0ROQFzCsickkeiqiqKlRVRSAQsC8a5eJRVVXzfXFMo1GBGsWhUTBqmpZUMGbquvZVMcmgJSK/YF4RkSTTsomqqprHibVeSUkJgnZL51h9Ta4+jRZE8eRGwWjVPe2bAjFd2Lp9n4go35hXRJQFeaUcuZEwGAwuPjKdQPyQWAQaJxGPF7urxXGRBt8UjIB92AKpX2MIE1GhMK+IKEty4SgORTRbHK0+JI9ltCocA4EAAJjPYte03MJoVSx6poCUdzUQ33czSJwhTET5xrwiohyy6qqWGw2N+k5V1cWi0apQNIhjGQEkFY7isaqqQtO0pC5ruaVR5Jmi0SDfkTOEicirmFdElAN2M6iNlsakmdRWB4oFnThjWm5BNL5ZSUmJeYzYNW20Qtq1OHqKHKRckoKIvIp5RUQ5JO/6ByClizooHiy3NsrL74gFpHhicSKMm1nTnmMVwgAHkhOR9zCviCiP5FnUiqJASUjNf/Js53QLfsuTXTLNmPZ8KyOQvhsHcH5HT0S0HJhXRJRj8q6A8kxqy6JRfAaQ0nooj1mUxy9m2gnGkzLdpRsYvkRUaMwrIsozsVg0X8tFI5DaMmg1G9qqZdFu9xfPF5C8Gyciv2BeEVEeyBNjHBWNgHXhCCR3Vxuv5dZJX45lBBjCROR9zCsiWkbi2Ma0RSOQvnC0WoMx07qMnsa7diLyC+YVES0jRy2NIrnl0GqijPy+zNM7wzCEicgvmFdElEPyxBe74xwVjYB94Si+9lxB6AS7e4jIL5hXRLTMzNZGp0UjkH7pHF8WiiKGMBH5BfOKiArEVdFocNOq6PuCkoiIiKiIpOum/h9upFO/+x+owwAAAABJRU5ErkJggg==;" parent="1" vertex="1">
          <mxGeometry x="437" y="-278" width="405.75" height="128" as="geometry" />
        </mxCell>
        <mxCell id="3UUtxU2mLUPDlU9XYx67-6" value="每日最大请求量" style="text;html=1;align=center;verticalAlign=middle;resizable=0;points=[];autosize=1;strokeColor=none;fillColor=none;" parent="1" vertex="1">
          <mxGeometry x="203" y="-98" width="102" height="26" as="geometry" />
        </mxCell>
        <mxCell id="3UUtxU2mLUPDlU9XYx67-7" value="10000000" style="rounded=0;whiteSpace=wrap;html=1;strokeColor=#000000;" parent="1" vertex="1">
          <mxGeometry x="314" y="-99" width="136" height="29" as="geometry" />
        </mxCell>
        <mxCell id="3UUtxU2mLUPDlU9XYx67-8" value="每秒最高并发量" style="text;html=1;align=center;verticalAlign=middle;resizable=0;points=[];autosize=1;strokeColor=none;fillColor=none;" parent="1" vertex="1">
          <mxGeometry x="203" y="-49.5" width="102" height="26" as="geometry" />
        </mxCell>
        <mxCell id="3UUtxU2mLUPDlU9XYx67-11" value="确认" style="rounded=1;whiteSpace=wrap;html=1;strokeColor=#6c8ebf;fillColor=#dae8fc;" parent="1" vertex="1">
          <mxGeometry x="345" y="17" width="64" height="23" as="geometry" />
        </mxCell>
        <mxCell id="3UUtxU2mLUPDlU9XYx67-12" value="10000" style="rounded=0;whiteSpace=wrap;html=1;strokeColor=#000000;" parent="1" vertex="1">
          <mxGeometry x="314" y="-52.5" width="136" height="29" as="geometry" />
        </mxCell>
        <mxCell id="8k2KyT7y7beR455I9DmG-1" value="&lt;font style=&quot;font-size: 14px;&quot;&gt;接口批量接入，json行格式&lt;/font&gt;" style="rounded=0;whiteSpace=wrap;html=1;" parent="1" vertex="1">
          <mxGeometry x="-4" y="199" width="345" height="175" as="geometry" />
        </mxCell>
        <mxCell id="8k2KyT7y7beR455I9DmG-2" value="确认" style="rounded=1;whiteSpace=wrap;html=1;strokeColor=#6c8ebf;fillColor=#dae8fc;" parent="1" vertex="1">
          <mxGeometry x="136.5" y="397" width="64" height="23" as="geometry" />
        </mxCell>
        <mxCell id="8k2KyT7y7beR455I9DmG-3" value="&lt;font style=&quot;font-size: 14px;&quot;&gt;接口权限批量开通，json行格式&lt;/font&gt;" style="rounded=0;whiteSpace=wrap;html=1;" parent="1" vertex="1">
          <mxGeometry x="-4" y="451" width="345" height="175" as="geometry" />
        </mxCell>
        <mxCell id="8k2KyT7y7beR455I9DmG-4" value="确认" style="rounded=1;whiteSpace=wrap;html=1;strokeColor=#6c8ebf;fillColor=#dae8fc;" parent="1" vertex="1">
          <mxGeometry x="136.5" y="649" width="64" height="23" as="geometry" />
        </mxCell>
        <mxCell id="eZnp440sQXaEjdPJ7hzd-11" style="edgeStyle=orthogonalEdgeStyle;rounded=0;orthogonalLoop=1;jettySize=auto;html=1;exitX=0.5;exitY=1;exitDx=0;exitDy=0;entryX=0.5;entryY=0;entryDx=0;entryDy=0;" parent="1" source="eZnp440sQXaEjdPJ7hzd-2" target="eZnp440sQXaEjdPJ7hzd-10" edge="1">
          <mxGeometry relative="1" as="geometry" />
        </mxCell>
        <mxCell id="eZnp440sQXaEjdPJ7hzd-2" value="用户请求" style="rounded=1;whiteSpace=wrap;html=1;fillColor=#f8cecc;strokeColor=#b85450;" parent="1" vertex="1">
          <mxGeometry x="-95" y="1305" width="80" height="45" as="geometry" />
        </mxCell>
        <mxCell id="eZnp440sQXaEjdPJ7hzd-12" style="edgeStyle=orthogonalEdgeStyle;rounded=0;orthogonalLoop=1;jettySize=auto;html=1;exitX=0;exitY=0.5;exitDx=0;exitDy=0;entryX=0;entryY=0.5;entryDx=0;entryDy=0;" parent="1" source="eZnp440sQXaEjdPJ7hzd-10" target="eZnp440sQXaEjdPJ7hzd-2" edge="1">
          <mxGeometry relative="1" as="geometry">
            <Array as="points">
              <mxPoint x="-150" y="1437" />
              <mxPoint x="-150" y="1328" />
            </Array>
          </mxGeometry>
        </mxCell>
        <mxCell id="eZnp440sQXaEjdPJ7hzd-14" style="edgeStyle=orthogonalEdgeStyle;rounded=0;orthogonalLoop=1;jettySize=auto;html=1;exitX=1;exitY=0.5;exitDx=0;exitDy=0;entryX=0;entryY=0.5;entryDx=0;entryDy=0;" parent="1" source="eZnp440sQXaEjdPJ7hzd-10" target="eZnp440sQXaEjdPJ7hzd-15" edge="1">
          <mxGeometry relative="1" as="geometry">
            <mxPoint x="61" y="1437" as="targetPoint" />
          </mxGeometry>
        </mxCell>
        <mxCell id="eZnp440sQXaEjdPJ7hzd-10" value="拿内存cache" style="rhombus;whiteSpace=wrap;html=1;" parent="1" vertex="1">
          <mxGeometry x="-95" y="1397" width="80" height="80" as="geometry" />
        </mxCell>
        <mxCell id="eZnp440sQXaEjdPJ7hzd-13" value="拿到了，返回" style="text;html=1;align=center;verticalAlign=middle;resizable=0;points=[];autosize=1;strokeColor=none;fillColor=none;" parent="1" vertex="1">
          <mxGeometry x="-202" y="1382" width="90" height="26" as="geometry" />
        </mxCell>
        <mxCell id="eZnp440sQXaEjdPJ7hzd-17" style="edgeStyle=orthogonalEdgeStyle;rounded=0;orthogonalLoop=1;jettySize=auto;html=1;exitX=0.5;exitY=0;exitDx=0;exitDy=0;entryX=1;entryY=0.5;entryDx=0;entryDy=0;" parent="1" source="eZnp440sQXaEjdPJ7hzd-15" target="eZnp440sQXaEjdPJ7hzd-2" edge="1">
          <mxGeometry relative="1" as="geometry" />
        </mxCell>
        <mxCell id="eZnp440sQXaEjdPJ7hzd-19" style="edgeStyle=orthogonalEdgeStyle;rounded=0;orthogonalLoop=1;jettySize=auto;html=1;exitX=1;exitY=0.5;exitDx=0;exitDy=0;entryX=0;entryY=0.5;entryDx=0;entryDy=0;" parent="1" source="eZnp440sQXaEjdPJ7hzd-15" target="eZnp440sQXaEjdPJ7hzd-20" edge="1">
          <mxGeometry relative="1" as="geometry">
            <mxPoint x="234" y="1437" as="targetPoint" />
          </mxGeometry>
        </mxCell>
        <mxCell id="eZnp440sQXaEjdPJ7hzd-15" value="拿redis阈值" style="rhombus;whiteSpace=wrap;html=1;" parent="1" vertex="1">
          <mxGeometry x="77" y="1397" width="80" height="80" as="geometry" />
        </mxCell>
        <mxCell id="eZnp440sQXaEjdPJ7hzd-16" value="没拿到" style="text;html=1;align=center;verticalAlign=middle;resizable=0;points=[];autosize=1;strokeColor=none;fillColor=none;" parent="1" vertex="1">
          <mxGeometry x="-4" y="1414" width="54" height="26" as="geometry" />
        </mxCell>
        <mxCell id="eZnp440sQXaEjdPJ7hzd-18" value="拿到了，更新内存cache，返回" style="text;html=1;align=center;verticalAlign=middle;resizable=0;points=[];autosize=1;strokeColor=none;fillColor=none;" parent="1" vertex="1">
          <mxGeometry x="21" y="1355" width="182" height="26" as="geometry" />
        </mxCell>
        <mxCell id="eZnp440sQXaEjdPJ7hzd-23" style="edgeStyle=orthogonalEdgeStyle;rounded=0;orthogonalLoop=1;jettySize=auto;html=1;exitX=0.5;exitY=1;exitDx=0;exitDy=0;entryX=0;entryY=0.5;entryDx=0;entryDy=0;" parent="1" source="eZnp440sQXaEjdPJ7hzd-20" target="eZnp440sQXaEjdPJ7hzd-15" edge="1">
          <mxGeometry relative="1" as="geometry">
            <mxPoint x="262" y="1649" as="targetPoint" />
            <Array as="points">
              <mxPoint x="326" y="1539" />
              <mxPoint x="57" y="1539" />
              <mxPoint x="57" y="1437" />
            </Array>
          </mxGeometry>
        </mxCell>
        <mxCell id="eZnp440sQXaEjdPJ7hzd-41" style="edgeStyle=orthogonalEdgeStyle;rounded=0;orthogonalLoop=1;jettySize=auto;html=1;exitX=1;exitY=0.5;exitDx=0;exitDy=0;entryX=0;entryY=0.5;entryDx=0;entryDy=0;" parent="1" source="eZnp440sQXaEjdPJ7hzd-20" target="eZnp440sQXaEjdPJ7hzd-40" edge="1">
          <mxGeometry relative="1" as="geometry" />
        </mxCell>
        <mxCell id="eZnp440sQXaEjdPJ7hzd-20" value="置redis锁" style="rhombus;whiteSpace=wrap;html=1;" parent="1" vertex="1">
          <mxGeometry x="286" y="1397" width="80" height="80" as="geometry" />
        </mxCell>
        <mxCell id="eZnp440sQXaEjdPJ7hzd-21" value="没拿到，没有key&lt;br&gt;(首次拿取)" style="text;html=1;align=center;verticalAlign=middle;resizable=0;points=[];autosize=1;strokeColor=none;fillColor=none;" parent="1" vertex="1">
          <mxGeometry x="165" y="1399" width="109" height="41" as="geometry" />
        </mxCell>
        <mxCell id="eZnp440sQXaEjdPJ7hzd-24" value="失败，&lt;br&gt;说明有其他节点操作&lt;br&gt;sleep 100ms重新拿redis阈值&lt;br&gt;最多重试3次" style="text;html=1;align=center;verticalAlign=middle;resizable=0;points=[];autosize=1;strokeColor=none;fillColor=none;" parent="1" vertex="1">
          <mxGeometry x="131.5" y="1469" width="172" height="70" as="geometry" />
        </mxCell>
        <mxCell id="eZnp440sQXaEjdPJ7hzd-27" value="成功" style="text;html=1;align=center;verticalAlign=middle;resizable=0;points=[];autosize=1;strokeColor=none;fillColor=none;" parent="1" vertex="1">
          <mxGeometry x="379" y="1417" width="42" height="26" as="geometry" />
        </mxCell>
        <mxCell id="eZnp440sQXaEjdPJ7hzd-49" style="edgeStyle=orthogonalEdgeStyle;rounded=0;orthogonalLoop=1;jettySize=auto;html=1;exitX=1;exitY=0.5;exitDx=0;exitDy=0;entryX=1;entryY=0.5;entryDx=0;entryDy=0;" parent="1" source="eZnp440sQXaEjdPJ7hzd-31" target="eZnp440sQXaEjdPJ7hzd-32" edge="1">
          <mxGeometry relative="1" as="geometry" />
        </mxCell>
        <mxCell id="eZnp440sQXaEjdPJ7hzd-31" value="设置redis阈值" style="rounded=1;whiteSpace=wrap;html=1;" parent="1" vertex="1">
          <mxGeometry x="656" y="1414.5" width="80" height="45" as="geometry" />
        </mxCell>
        <mxCell id="eZnp440sQXaEjdPJ7hzd-35" style="edgeStyle=orthogonalEdgeStyle;rounded=0;orthogonalLoop=1;jettySize=auto;html=1;entryX=0;entryY=0.5;entryDx=0;entryDy=0;exitX=0;exitY=0.5;exitDx=0;exitDy=0;" parent="1" source="eZnp440sQXaEjdPJ7hzd-32" target="eZnp440sQXaEjdPJ7hzd-15" edge="1">
          <mxGeometry relative="1" as="geometry">
            <mxPoint x="773" y="1627" as="sourcePoint" />
            <Array as="points">
              <mxPoint x="57" y="1573" />
              <mxPoint x="57" y="1437" />
            </Array>
          </mxGeometry>
        </mxCell>
        <mxCell id="eZnp440sQXaEjdPJ7hzd-32" value="释放redis锁" style="rounded=1;whiteSpace=wrap;html=1;" parent="1" vertex="1">
          <mxGeometry x="473" y="1550.5" width="80" height="45" as="geometry" />
        </mxCell>
        <mxCell id="eZnp440sQXaEjdPJ7hzd-36" value="重新拿redis阈值" style="text;html=1;align=center;verticalAlign=middle;resizable=0;points=[];autosize=1;strokeColor=none;fillColor=none;" parent="1" vertex="1">
          <mxGeometry x="350" y="1550.5" width="104" height="26" as="geometry" />
        </mxCell>
        <mxCell id="eZnp440sQXaEjdPJ7hzd-42" style="edgeStyle=orthogonalEdgeStyle;rounded=0;orthogonalLoop=1;jettySize=auto;html=1;exitX=1;exitY=0.5;exitDx=0;exitDy=0;entryX=0;entryY=0.5;entryDx=0;entryDy=0;" parent="1" source="eZnp440sQXaEjdPJ7hzd-40" target="eZnp440sQXaEjdPJ7hzd-31" edge="1">
          <mxGeometry relative="1" as="geometry" />
        </mxCell>
        <mxCell id="eZnp440sQXaEjdPJ7hzd-50" style="edgeStyle=orthogonalEdgeStyle;rounded=0;orthogonalLoop=1;jettySize=auto;html=1;exitX=0.5;exitY=1;exitDx=0;exitDy=0;entryX=0.5;entryY=0;entryDx=0;entryDy=0;" parent="1" source="eZnp440sQXaEjdPJ7hzd-40" target="eZnp440sQXaEjdPJ7hzd-32" edge="1">
          <mxGeometry relative="1" as="geometry" />
        </mxCell>
        <mxCell id="eZnp440sQXaEjdPJ7hzd-40" value="获取redis key&lt;br&gt;可能其他节点已设置过" style="rhombus;whiteSpace=wrap;html=1;" parent="1" vertex="1">
          <mxGeometry x="435" y="1397" width="156" height="80" as="geometry" />
        </mxCell>
        <mxCell id="eZnp440sQXaEjdPJ7hzd-43" value="没拿到" style="text;html=1;align=center;verticalAlign=middle;resizable=0;points=[];autosize=1;strokeColor=none;fillColor=none;" parent="1" vertex="1">
          <mxGeometry x="591" y="1415" width="54" height="26" as="geometry" />
        </mxCell>
        <mxCell id="eZnp440sQXaEjdPJ7hzd-45" value="拿到了" style="text;html=1;align=center;verticalAlign=middle;resizable=0;points=[];autosize=1;strokeColor=none;fillColor=none;" parent="1" vertex="1">
          <mxGeometry x="493" y="1491" width="54" height="26" as="geometry" />
        </mxCell>
      </root>
    </mxGraphModel>
  </diagram>
</mxfile>
